<svg width="152" height="32" viewBox="0 0 152 32" fill="none" xmlns="http://www.w3.org/2000/svg">
<path d="M67.312 9.2C68.848 9.2 69.992 9.56 70.744 10.28C71.496 11 71.872 12.064 71.872 13.472C71.872 14.224 71.688 14.888 71.32 15.464C70.952 16.024 70.408 16.464 69.688 16.784C68.968 17.088 68.08 17.24 67.024 17.24L67.12 16.16C67.616 16.16 68.184 16.232 68.824 16.376C69.464 16.504 70.08 16.744 70.672 17.096C71.28 17.432 71.776 17.912 72.16 18.536C72.56 19.144 72.76 19.928 72.76 20.888C72.76 21.944 72.584 22.808 72.232 23.48C71.896 24.152 71.448 24.672 70.888 25.04C70.328 25.408 69.728 25.664 69.088 25.808C68.448 25.936 67.832 26 67.24 26H61.264C60.848 26 60.496 25.864 60.208 25.592C59.936 25.304 59.8 24.952 59.8 24.536V10.664C59.8 10.248 59.936 9.904 60.208 9.632C60.496 9.344 60.848 9.2 61.264 9.2H67.312ZM66.88 12.032H62.608L62.92 11.648V15.992L62.632 15.776H66.952C67.416 15.776 67.832 15.624 68.2 15.32C68.568 15.016 68.752 14.576 68.752 14C68.752 13.312 68.576 12.816 68.224 12.512C67.888 12.192 67.44 12.032 66.88 12.032ZM67.072 18.608H62.704L62.92 18.416V23.48L62.68 23.24H67.24C67.976 23.24 68.56 23.048 68.992 22.664C69.424 22.264 69.64 21.672 69.64 20.888C69.64 20.168 69.496 19.648 69.208 19.328C68.92 19.008 68.576 18.808 68.176 18.728C67.776 18.648 67.408 18.608 67.072 18.608ZM85.7986 12.92C86.2146 12.92 86.5586 13.056 86.8306 13.328C87.1026 13.6 87.2386 13.952 87.2386 14.384V24.536C87.2386 24.952 87.1026 25.304 86.8306 25.592C86.5586 25.864 86.2146 26 85.7986 26C85.3826 26 85.0386 25.864 84.7666 25.592C84.4946 25.304 84.3586 24.952 84.3586 24.536V23.36L84.8866 23.576C84.8866 23.784 84.7746 24.04 84.5506 24.344C84.3266 24.632 84.0226 24.92 83.6386 25.208C83.2546 25.496 82.7986 25.744 82.2706 25.952C81.7586 26.144 81.1986 26.24 80.5906 26.24C79.4866 26.24 78.4866 25.96 77.5906 25.4C76.6946 24.824 75.9826 24.04 75.4546 23.048C74.9426 22.04 74.6866 20.888 74.6866 19.592C74.6866 18.28 74.9426 17.128 75.4546 16.136C75.9826 15.128 76.6866 14.344 77.5666 13.784C78.4466 13.208 79.4226 12.92 80.4946 12.92C81.1826 12.92 81.8146 13.024 82.3906 13.232C82.9666 13.44 83.4626 13.704 83.8786 14.024C84.3106 14.344 84.6386 14.672 84.8626 15.008C85.1026 15.328 85.2226 15.6 85.2226 15.824L84.3586 16.136V14.384C84.3586 13.968 84.4946 13.624 84.7666 13.352C85.0386 13.064 85.3826 12.92 85.7986 12.92ZM80.9506 23.6C81.6546 23.6 82.2706 23.424 82.7986 23.072C83.3266 22.72 83.7346 22.24 84.0226 21.632C84.3266 21.024 84.4786 20.344 84.4786 19.592C84.4786 18.824 84.3266 18.136 84.0226 17.528C83.7346 16.92 83.3266 16.44 82.7986 16.088C82.2706 15.736 81.6546 15.56 80.9506 15.56C80.2626 15.56 79.6546 15.736 79.1266 16.088C78.5986 16.44 78.1826 16.92 77.8786 17.528C77.5906 18.136 77.4466 18.824 77.4466 19.592C77.4466 20.344 77.5906 21.024 77.8786 21.632C78.1826 22.24 78.5986 22.72 79.1266 23.072C79.6546 23.424 80.2626 23.6 80.9506 23.6ZM93.4769 24.536C93.4769 24.952 93.3329 25.304 93.0449 25.592C92.7729 25.864 92.4289 26 92.0129 26C91.6129 26 91.2769 25.864 91.0049 25.592C90.7329 25.304 90.5969 24.952 90.5969 24.536V9.704C90.5969 9.288 90.7329 8.944 91.0049 8.672C91.2929 8.384 91.6449 8.24 92.0609 8.24C92.4769 8.24 92.8129 8.384 93.0689 8.672C93.3409 8.944 93.4769 9.288 93.4769 9.704V24.536ZM107.338 12.92C107.754 12.92 108.098 13.056 108.37 13.328C108.642 13.6 108.778 13.952 108.778 14.384V24.536C108.778 24.952 108.642 25.304 108.37 25.592C108.098 25.864 107.754 26 107.338 26C106.922 26 106.578 25.864 106.306 25.592C106.034 25.304 105.898 24.952 105.898 24.536V23.36L106.426 23.576C106.426 23.784 106.314 24.04 106.09 24.344C105.866 24.632 105.562 24.92 105.178 25.208C104.794 25.496 104.338 25.744 103.81 25.952C103.298 26.144 102.738 26.24 102.13 26.24C101.026 26.24 100.026 25.96 99.1296 25.4C98.2336 24.824 97.5216 24.04 96.9936 23.048C96.4816 22.04 96.2256 20.888 96.2256 19.592C96.2256 18.28 96.4816 17.128 96.9936 16.136C97.5216 15.128 98.2256 14.344 99.1056 13.784C99.9856 13.208 100.962 12.92 102.034 12.92C102.722 12.92 103.354 13.024 103.93 13.232C104.506 13.44 105.002 13.704 105.418 14.024C105.85 14.344 106.178 14.672 106.402 15.008C106.642 15.328 106.762 15.6 106.762 15.824L105.898 16.136V14.384C105.898 13.968 106.034 13.624 106.306 13.352C106.578 13.064 106.922 12.92 107.338 12.92ZM102.49 23.6C103.194 23.6 103.81 23.424 104.338 23.072C104.866 22.72 105.274 22.24 105.562 21.632C105.866 21.024 106.018 20.344 106.018 19.592C106.018 18.824 105.866 18.136 105.562 17.528C105.274 16.92 104.866 16.44 104.338 16.088C103.81 15.736 103.194 15.56 102.49 15.56C101.802 15.56 101.194 15.736 100.666 16.088C100.138 16.44 99.7216 16.92 99.4176 17.528C99.1296 18.136 98.9856 18.824 98.9856 19.592C98.9856 20.344 99.1296 21.024 99.4176 21.632C99.7216 22.24 100.138 22.72 100.666 23.072C101.194 23.424 101.802 23.6 102.49 23.6ZM118.76 12.92C119.944 12.92 120.84 13.168 121.448 13.664C122.072 14.16 122.496 14.824 122.72 15.656C122.96 16.472 123.08 17.384 123.08 18.392V24.536C123.08 24.952 122.944 25.304 122.672 25.592C122.4 25.864 122.056 26 121.64 26C121.224 26 120.88 25.864 120.608 25.592C120.336 25.304 120.2 24.952 120.2 24.536V18.392C120.2 17.864 120.128 17.392 119.984 16.976C119.856 16.544 119.616 16.2 119.264 15.944C118.912 15.688 118.408 15.56 117.752 15.56C117.112 15.56 116.568 15.688 116.12 15.944C115.688 16.2 115.352 16.544 115.112 16.976C114.888 17.392 114.776 17.864 114.776 18.392V24.536C114.776 24.952 114.64 25.304 114.368 25.592C114.096 25.864 113.752 26 113.336 26C112.92 26 112.576 25.864 112.304 25.592C112.032 25.304 111.896 24.952 111.896 24.536V14.624C111.896 14.208 112.032 13.864 112.304 13.592C112.576 13.304 112.92 13.16 113.336 13.16C113.752 13.16 114.096 13.304 114.368 13.592C114.64 13.864 114.776 14.208 114.776 14.624V15.656L114.416 15.584C114.56 15.312 114.768 15.024 115.04 14.72C115.312 14.4 115.632 14.104 116 13.832C116.368 13.56 116.784 13.344 117.248 13.184C117.712 13.008 118.216 12.92 118.76 12.92ZM131.905 12.92C132.817 12.92 133.609 13.016 134.281 13.208C134.969 13.4 135.497 13.672 135.865 14.024C136.249 14.36 136.441 14.768 136.441 15.248C136.441 15.568 136.345 15.872 136.153 16.16C135.961 16.432 135.681 16.568 135.313 16.568C135.057 16.568 134.841 16.536 134.665 16.472C134.505 16.392 134.361 16.296 134.233 16.184C134.105 16.072 133.953 15.968 133.777 15.872C133.617 15.776 133.369 15.704 133.033 15.656C132.713 15.592 132.473 15.56 132.313 15.56C131.497 15.56 130.801 15.736 130.225 16.088C129.665 16.44 129.233 16.92 128.929 17.528C128.625 18.12 128.473 18.808 128.473 19.592C128.473 20.36 128.625 21.048 128.929 21.656C129.249 22.248 129.681 22.72 130.225 23.072C130.785 23.424 131.425 23.6 132.145 23.6C132.545 23.6 132.889 23.576 133.177 23.528C133.465 23.48 133.705 23.408 133.897 23.312C134.121 23.184 134.321 23.048 134.497 22.904C134.673 22.76 134.937 22.688 135.289 22.688C135.705 22.688 136.025 22.824 136.249 23.096C136.473 23.352 136.585 23.672 136.585 24.056C136.585 24.456 136.361 24.824 135.913 25.16C135.465 25.48 134.873 25.744 134.137 25.952C133.417 26.144 132.633 26.24 131.785 26.24C130.521 26.24 129.425 25.952 128.497 25.376C127.569 24.784 126.849 23.984 126.337 22.976C125.841 21.968 125.593 20.84 125.593 19.592C125.593 18.28 125.857 17.128 126.385 16.136C126.929 15.128 127.673 14.344 128.617 13.784C129.577 13.208 130.673 12.92 131.905 12.92ZM144.71 26.24C143.35 26.24 142.166 25.96 141.158 25.4C140.166 24.824 139.398 24.048 138.854 23.072C138.326 22.096 138.062 20.992 138.062 19.76C138.062 18.32 138.35 17.096 138.926 16.088C139.518 15.064 140.286 14.28 141.23 13.736C142.174 13.192 143.174 12.92 144.23 12.92C145.046 12.92 145.814 13.088 146.534 13.424C147.27 13.76 147.918 14.224 148.478 14.816C149.038 15.392 149.478 16.064 149.798 16.832C150.134 17.6 150.302 18.416 150.302 19.28C150.286 19.664 150.134 19.976 149.846 20.216C149.558 20.456 149.222 20.576 148.838 20.576H139.67L138.95 18.176H147.758L147.23 18.656V18.008C147.198 17.544 147.03 17.128 146.726 16.76C146.438 16.392 146.07 16.104 145.622 15.896C145.19 15.672 144.726 15.56 144.23 15.56C143.75 15.56 143.302 15.624 142.886 15.752C142.47 15.88 142.11 16.096 141.806 16.4C141.502 16.704 141.262 17.112 141.086 17.624C140.91 18.136 140.822 18.784 140.822 19.568C140.822 20.432 140.998 21.168 141.35 21.776C141.718 22.368 142.182 22.824 142.742 23.144C143.318 23.448 143.926 23.6 144.566 23.6C145.158 23.6 145.63 23.552 145.982 23.456C146.334 23.36 146.614 23.248 146.822 23.12C147.046 22.976 147.246 22.856 147.422 22.76C147.71 22.616 147.982 22.544 148.238 22.544C148.59 22.544 148.878 22.664 149.102 22.904C149.342 23.144 149.462 23.424 149.462 23.744C149.462 24.176 149.238 24.568 148.79 24.92C148.374 25.272 147.79 25.584 147.038 25.856C146.286 26.112 145.51 26.24 144.71 26.24Z" fill="white"/>
<path d="M13.3333 21.3333V10.6667C13.3333 9.95942 13.6143 9.28115 14.1144 8.78105C14.6145 8.28095 15.2928 8 16 8H28V6.66667C28 5.2 26.8 4 25.3333 4H6.66667C5.95942 4 5.28115 4.28095 4.78105 4.78105C4.28095 5.28115 4 5.95942 4 6.66667V25.3333C4 26.0406 4.28095 26.7189 4.78105 27.219C5.28115 27.719 5.95942 28 6.66667 28H25.3333C26.8 28 28 26.8 28 25.3333V24H16C15.2928 24 14.6145 23.719 14.1144 23.219C13.6143 22.7189 13.3333 22.0406 13.3333 21.3333ZM17.3333 10.6667C16.6 10.6667 16 11.2667 16 12V20C16 20.7333 16.6 21.3333 17.3333 21.3333H29.3333V10.6667H17.3333ZM21.3333 18C20.2267 18 19.3333 17.1067 19.3333 16C19.3333 14.8933 20.2267 14 21.3333 14C22.44 14 23.3333 14.8933 23.3333 16C23.3333 17.1067 22.44 18 21.3333 18Z" fill="#8A8A8A"/>
</svg>
