<svg width="172" height="32" viewBox="0 0 172 32" fill="none" xmlns="http://www.w3.org/2000/svg">
<path d="M69.56 8.016C69.976 8.224 70.216 8.552 70.28 9C70.36 9.448 70.248 9.856 69.944 10.224C69.736 10.512 69.464 10.672 69.128 10.704C68.808 10.736 68.48 10.672 68.144 10.512C67.76 10.336 67.352 10.2 66.92 10.104C66.504 10.008 66.064 9.96 65.6 9.96C64.736 9.96 63.96 10.096 63.272 10.368C62.6 10.64 62.024 11.032 61.544 11.544C61.064 12.04 60.696 12.632 60.44 13.32C60.2 14.008 60.08 14.768 60.08 15.6C60.08 16.576 60.216 17.424 60.488 18.144C60.776 18.864 61.168 19.464 61.664 19.944C62.16 20.424 62.744 20.784 63.416 21.024C64.088 21.248 64.816 21.36 65.6 21.36C66.032 21.36 66.464 21.32 66.896 21.24C67.328 21.16 67.744 21.016 68.144 20.808C68.48 20.648 68.808 20.592 69.128 20.64C69.464 20.688 69.744 20.856 69.968 21.144C70.288 21.544 70.4 21.96 70.304 22.392C70.224 22.808 69.984 23.112 69.584 23.304C69.168 23.512 68.736 23.688 68.288 23.832C67.856 23.96 67.416 24.056 66.968 24.12C66.52 24.2 66.064 24.24 65.6 24.24C64.448 24.24 63.352 24.056 62.312 23.688C61.288 23.32 60.368 22.776 59.552 22.056C58.752 21.336 58.12 20.44 57.656 19.368C57.192 18.28 56.96 17.024 56.96 15.6C56.96 14.368 57.168 13.232 57.584 12.192C58.016 11.152 58.616 10.256 59.384 9.504C60.168 8.736 61.088 8.144 62.144 7.728C63.2 7.296 64.352 7.08 65.6 7.08C66.304 7.08 66.992 7.16 67.664 7.32C68.336 7.48 68.968 7.712 69.56 8.016ZM85.0629 17.592C85.0629 18.904 84.7669 20.064 84.1749 21.072C83.5989 22.064 82.8149 22.84 81.8229 23.4C80.8469 23.96 79.7509 24.24 78.5349 24.24C77.3189 24.24 76.2149 23.96 75.2229 23.4C74.2469 22.84 73.4629 22.064 72.8709 21.072C72.2949 20.064 72.0069 18.904 72.0069 17.592C72.0069 16.28 72.2949 15.128 72.8709 14.136C73.4629 13.128 74.2469 12.344 75.2229 11.784C76.2149 11.208 77.3189 10.92 78.5349 10.92C79.7509 10.92 80.8469 11.208 81.8229 11.784C82.8149 12.344 83.5989 13.128 84.1749 14.136C84.7669 15.128 85.0629 16.28 85.0629 17.592ZM82.1829 17.592C82.1829 16.776 82.0149 16.072 81.6789 15.48C81.3589 14.872 80.9189 14.4 80.3589 14.064C79.8149 13.728 79.2069 13.56 78.5349 13.56C77.8629 13.56 77.2469 13.728 76.6869 14.064C76.1429 14.4 75.7029 14.872 75.3669 15.48C75.0469 16.072 74.8869 16.776 74.8869 17.592C74.8869 18.392 75.0469 19.096 75.3669 19.704C75.7029 20.296 76.1429 20.76 76.6869 21.096C77.2469 21.432 77.8629 21.6 78.5349 21.6C79.2069 21.6 79.8149 21.432 80.3589 21.096C80.9189 20.76 81.3589 20.296 81.6789 19.704C82.0149 19.096 82.1829 18.392 82.1829 17.592ZM94.3274 10.92C95.6074 10.92 96.5514 11.232 97.1594 11.856C97.7674 12.464 98.1674 13.256 98.3594 14.232L97.9514 14.016L98.1434 13.632C98.3354 13.264 98.6314 12.872 99.0314 12.456C99.4314 12.024 99.9114 11.664 100.471 11.376C101.047 11.072 101.687 10.92 102.391 10.92C103.543 10.92 104.415 11.168 105.007 11.664C105.615 12.16 106.031 12.824 106.255 13.656C106.479 14.472 106.591 15.384 106.591 16.392V22.536C106.591 22.952 106.455 23.304 106.183 23.592C105.911 23.864 105.567 24 105.151 24C104.735 24 104.391 23.864 104.119 23.592C103.847 23.304 103.711 22.952 103.711 22.536V16.392C103.711 15.864 103.647 15.392 103.519 14.976C103.391 14.544 103.159 14.2 102.823 13.944C102.487 13.688 102.007 13.56 101.383 13.56C100.775 13.56 100.255 13.688 99.8234 13.944C99.3914 14.2 99.0634 14.544 98.8394 14.976C98.6314 15.392 98.5274 15.864 98.5274 16.392V22.536C98.5274 22.952 98.3914 23.304 98.1194 23.592C97.8474 23.864 97.5034 24 97.0874 24C96.6714 24 96.3274 23.864 96.0554 23.592C95.7834 23.304 95.6474 22.952 95.6474 22.536V16.392C95.6474 15.864 95.5834 15.392 95.4554 14.976C95.3274 14.544 95.0954 14.2 94.7594 13.944C94.4234 13.688 93.9434 13.56 93.3194 13.56C92.7114 13.56 92.1914 13.688 91.7594 13.944C91.3274 14.2 90.9994 14.544 90.7754 14.976C90.5674 15.392 90.4634 15.864 90.4634 16.392V22.536C90.4634 22.952 90.3274 23.304 90.0554 23.592C89.7834 23.864 89.4394 24 89.0234 24C88.6074 24 88.2634 23.864 87.9914 23.592C87.7194 23.304 87.5834 22.952 87.5834 22.536V12.624C87.5834 12.208 87.7194 11.864 87.9914 11.592C88.2634 11.304 88.6074 11.16 89.0234 11.16C89.4394 11.16 89.7834 11.304 90.0554 11.592C90.3274 11.864 90.4634 12.208 90.4634 12.624V13.656L90.1034 13.584C90.2474 13.312 90.4474 13.024 90.7034 12.72C90.9594 12.4 91.2714 12.104 91.6394 11.832C92.0074 11.56 92.4154 11.344 92.8634 11.184C93.3114 11.008 93.7994 10.92 94.3274 10.92ZM116.356 10.92C117.476 10.92 118.476 11.208 119.356 11.784C120.252 12.344 120.956 13.12 121.468 14.112C121.996 15.104 122.26 16.256 122.26 17.568C122.26 18.88 121.996 20.04 121.468 21.048C120.956 22.04 120.26 22.824 119.38 23.4C118.516 23.96 117.54 24.24 116.452 24.24C115.812 24.24 115.212 24.136 114.652 23.928C114.092 23.72 113.596 23.456 113.164 23.136C112.748 22.816 112.42 22.496 112.18 22.176C111.956 21.84 111.844 21.56 111.844 21.336L112.588 21.024V27.336C112.588 27.752 112.452 28.096 112.18 28.368C111.908 28.656 111.564 28.8 111.148 28.8C110.732 28.8 110.388 28.664 110.116 28.392C109.844 28.12 109.708 27.768 109.708 27.336V12.624C109.708 12.208 109.844 11.864 110.116 11.592C110.388 11.304 110.732 11.16 111.148 11.16C111.564 11.16 111.908 11.304 112.18 11.592C112.452 11.864 112.588 12.208 112.588 12.624V13.8L112.18 13.584C112.18 13.376 112.292 13.128 112.516 12.84C112.74 12.536 113.044 12.24 113.428 11.952C113.812 11.648 114.252 11.4 114.748 11.208C115.26 11.016 115.796 10.92 116.356 10.92ZM115.996 13.56C115.292 13.56 114.676 13.736 114.148 14.088C113.62 14.44 113.204 14.92 112.9 15.528C112.612 16.12 112.468 16.8 112.468 17.568C112.468 18.32 112.612 19.008 112.9 19.632C113.204 20.24 113.62 20.72 114.148 21.072C114.676 21.424 115.292 21.6 115.996 21.6C116.7 21.6 117.308 21.424 117.82 21.072C118.348 20.72 118.756 20.24 119.044 19.632C119.348 19.008 119.5 18.32 119.5 17.568C119.5 16.8 119.348 16.12 119.044 15.528C118.756 14.92 118.348 14.44 117.82 14.088C117.308 13.736 116.7 13.56 115.996 13.56ZM134.307 11.16C134.723 11.16 135.067 11.304 135.339 11.592C135.611 11.864 135.747 12.208 135.747 12.624V18.72C135.747 20.416 135.275 21.76 134.331 22.752C133.387 23.744 132.027 24.24 130.251 24.24C128.475 24.24 127.115 23.744 126.171 22.752C125.243 21.76 124.779 20.416 124.779 18.72V12.624C124.779 12.208 124.915 11.864 125.187 11.592C125.459 11.304 125.803 11.16 126.219 11.16C126.635 11.16 126.979 11.304 127.251 11.592C127.523 11.864 127.659 12.208 127.659 12.624V18.72C127.659 19.696 127.875 20.424 128.307 20.904C128.739 21.368 129.387 21.6 130.251 21.6C131.131 21.6 131.787 21.368 132.219 20.904C132.651 20.424 132.867 19.696 132.867 18.72V12.624C132.867 12.208 133.003 11.864 133.275 11.592C133.547 11.304 133.891 11.16 134.307 11.16ZM139.009 11.4H144.697C145.081 11.4 145.401 11.528 145.657 11.784C145.913 12.04 146.041 12.36 146.041 12.744C146.041 13.112 145.913 13.424 145.657 13.68C145.401 13.92 145.081 14.04 144.697 14.04H139.009C138.625 14.04 138.305 13.912 138.049 13.656C137.793 13.4 137.665 13.08 137.665 12.696C137.665 12.328 137.793 12.024 138.049 11.784C138.305 11.528 138.625 11.4 139.009 11.4ZM141.577 8.4C141.993 8.4 142.329 8.544 142.585 8.832C142.857 9.104 142.993 9.448 142.993 9.864V20.544C142.993 20.768 143.033 20.952 143.113 21.096C143.209 21.24 143.329 21.344 143.473 21.408C143.633 21.472 143.801 21.504 143.977 21.504C144.169 21.504 144.345 21.472 144.505 21.408C144.665 21.328 144.849 21.288 145.057 21.288C145.281 21.288 145.481 21.392 145.657 21.6C145.849 21.808 145.945 22.096 145.945 22.464C145.945 22.912 145.697 23.28 145.201 23.568C144.721 23.856 144.201 24 143.641 24C143.305 24 142.929 23.976 142.513 23.928C142.113 23.864 141.729 23.728 141.361 23.52C141.009 23.296 140.713 22.96 140.473 22.512C140.233 22.064 140.113 21.448 140.113 20.664V9.864C140.113 9.448 140.249 9.104 140.521 8.832C140.809 8.544 141.161 8.4 141.577 8.4ZM154.616 24.24C153.256 24.24 152.072 23.96 151.064 23.4C150.072 22.824 149.304 22.048 148.76 21.072C148.232 20.096 147.968 18.992 147.968 17.76C147.968 16.32 148.256 15.096 148.832 14.088C149.424 13.064 150.192 12.28 151.136 11.736C152.08 11.192 153.08 10.92 154.136 10.92C154.952 10.92 155.72 11.088 156.44 11.424C157.176 11.76 157.824 12.224 158.384 12.816C158.944 13.392 159.384 14.064 159.704 14.832C160.04 15.6 160.208 16.416 160.208 17.28C160.192 17.664 160.04 17.976 159.752 18.216C159.464 18.456 159.128 18.576 158.744 18.576H149.576L148.856 16.176H157.664L157.136 16.656V16.008C157.104 15.544 156.936 15.128 156.632 14.76C156.344 14.392 155.976 14.104 155.528 13.896C155.096 13.672 154.632 13.56 154.136 13.56C153.656 13.56 153.208 13.624 152.792 13.752C152.376 13.88 152.016 14.096 151.712 14.4C151.408 14.704 151.168 15.112 150.992 15.624C150.816 16.136 150.728 16.784 150.728 17.568C150.728 18.432 150.904 19.168 151.256 19.776C151.624 20.368 152.088 20.824 152.648 21.144C153.224 21.448 153.832 21.6 154.472 21.6C155.064 21.6 155.536 21.552 155.888 21.456C156.24 21.36 156.52 21.248 156.728 21.12C156.952 20.976 157.152 20.856 157.328 20.76C157.616 20.616 157.888 20.544 158.144 20.544C158.496 20.544 158.784 20.664 159.008 20.904C159.248 21.144 159.368 21.424 159.368 21.744C159.368 22.176 159.144 22.568 158.696 22.92C158.28 23.272 157.696 23.584 156.944 23.856C156.192 24.112 155.416 24.24 154.616 24.24ZM164.164 24C163.748 24 163.404 23.864 163.132 23.592C162.86 23.304 162.724 22.952 162.724 22.536V12.624C162.724 12.208 162.86 11.864 163.132 11.592C163.404 11.304 163.748 11.16 164.164 11.16C164.58 11.16 164.924 11.304 165.196 11.592C165.468 11.864 165.604 12.208 165.604 12.624V14.88L165.436 13.272C165.612 12.888 165.836 12.552 166.108 12.264C166.396 11.96 166.716 11.712 167.068 11.52C167.42 11.312 167.796 11.16 168.196 11.064C168.596 10.968 168.996 10.92 169.396 10.92C169.876 10.92 170.276 11.056 170.596 11.328C170.932 11.6 171.1 11.92 171.1 12.288C171.1 12.816 170.964 13.2 170.692 13.44C170.42 13.664 170.124 13.776 169.804 13.776C169.5 13.776 169.22 13.72 168.964 13.608C168.724 13.496 168.444 13.44 168.124 13.44C167.836 13.44 167.54 13.512 167.236 13.656C166.948 13.784 166.676 13.992 166.42 14.28C166.18 14.568 165.98 14.928 165.82 15.36C165.676 15.776 165.604 16.272 165.604 16.848V22.536C165.604 22.952 165.468 23.304 165.196 23.592C164.924 23.864 164.58 24 164.164 24Z" fill="#8A8A8A"/>
<path d="M29.125 1H2.875C1.9375 1 1 1.9375 1 2.875V23.969C1 24.9065 1.9375 25.844 2.875 25.844H12.25V27.719C12.25 29.021 10.561 29.594 8.5 29.594V31H23.5V29.5935C21.4385 29.5935 19.75 29.0205 19.75 27.7185V25.8435H29.125C30.0625 25.8435 31 24.906 31 23.9685V2.875C31 1.9375 30.0625 1 29.125 1ZM30 23.969C30 24.3535 29.509 24.844 29.125 24.844H2.875C2.4905 24.844 2 24.3535 2 23.969V22.094H30V23.969Z" fill="#8A8A8A"/>
<path d="M16 24.438C16.259 24.438 16.469 24.228 16.469 23.969C16.469 23.71 16.259 23.5 16 23.5C15.741 23.5 15.531 23.71 15.531 23.969C15.531 24.228 15.741 24.438 16 24.438Z" fill="#8A8A8A"/>
</svg>
