<svg width="151" height="30" viewBox="0 0 151 30" fill="none" xmlns="http://www.w3.org/2000/svg">
<path d="M57.312 24C56.864 24 56.496 23.864 56.208 23.592C55.936 23.304 55.8 22.952 55.8 22.536V8.664C55.8 8.248 55.936 7.904 56.208 7.632C56.496 7.344 56.848 7.2 57.264 7.2H65.064C65.48 7.2 65.824 7.336 66.096 7.608C66.384 7.864 66.528 8.2 66.528 8.616C66.528 8.968 66.384 9.28 66.096 9.552C65.824 9.824 65.48 9.96 65.064 9.96H58.584L58.8 9.672V14.496L58.632 14.184H63.984C64.4 14.184 64.744 14.32 65.016 14.592C65.304 14.848 65.448 15.184 65.448 15.6C65.448 15.952 65.304 16.264 65.016 16.536C64.744 16.808 64.4 16.944 63.984 16.944H58.584L58.8 16.728V22.536C58.8 22.952 58.648 23.304 58.344 23.592C58.056 23.864 57.712 24 57.312 24ZM79.0798 10.92C79.4958 10.92 79.8398 11.056 80.1118 11.328C80.3838 11.6 80.5198 11.952 80.5198 12.384V22.536C80.5198 22.952 80.3838 23.304 80.1118 23.592C79.8398 23.864 79.4958 24 79.0798 24C78.6638 24 78.3198 23.864 78.0478 23.592C77.7758 23.304 77.6398 22.952 77.6398 22.536V21.36L78.1678 21.576C78.1678 21.784 78.0558 22.04 77.8318 22.344C77.6078 22.632 77.3038 22.92 76.9198 23.208C76.5358 23.496 76.0798 23.744 75.5518 23.952C75.0398 24.144 74.4798 24.24 73.8718 24.24C72.7678 24.24 71.7678 23.96 70.8718 23.4C69.9758 22.824 69.2638 22.04 68.7358 21.048C68.2238 20.04 67.9678 18.888 67.9678 17.592C67.9678 16.28 68.2238 15.128 68.7358 14.136C69.2638 13.128 69.9678 12.344 70.8478 11.784C71.7278 11.208 72.7038 10.92 73.7758 10.92C74.4638 10.92 75.0958 11.024 75.6718 11.232C76.2478 11.44 76.7438 11.704 77.1598 12.024C77.5918 12.344 77.9198 12.672 78.1438 13.008C78.3838 13.328 78.5038 13.6 78.5038 13.824L77.6398 14.136V12.384C77.6398 11.968 77.7758 11.624 78.0478 11.352C78.3198 11.064 78.6638 10.92 79.0798 10.92ZM74.2318 21.6C74.9358 21.6 75.5518 21.424 76.0798 21.072C76.6078 20.72 77.0158 20.24 77.3038 19.632C77.6078 19.024 77.7598 18.344 77.7598 17.592C77.7598 16.824 77.6078 16.136 77.3038 15.528C77.0158 14.92 76.6078 14.44 76.0798 14.088C75.5518 13.736 74.9358 13.56 74.2318 13.56C73.5438 13.56 72.9358 13.736 72.4078 14.088C71.8798 14.44 71.4638 14.92 71.1598 15.528C70.8718 16.136 70.7278 16.824 70.7278 17.592C70.7278 18.344 70.8718 19.024 71.1598 19.632C71.4638 20.24 71.8798 20.72 72.4078 21.072C72.9358 21.424 73.5438 21.6 74.2318 21.6ZM83.9329 11.16C84.2369 11.16 84.5169 11.24 84.7729 11.4C85.0289 11.544 85.2209 11.768 85.3489 12.072L88.8769 20.136L88.3489 20.376L91.9489 12.096C92.2209 11.456 92.6449 11.152 93.2209 11.184C93.6209 11.184 93.9409 11.312 94.1809 11.568C94.4369 11.808 94.5649 12.112 94.5649 12.48C94.5649 12.592 94.5409 12.712 94.4929 12.84C94.4609 12.968 94.4209 13.088 94.3729 13.2L89.8849 23.088C89.6289 23.664 89.2209 23.968 88.6609 24C88.3569 24.048 88.0609 23.992 87.7729 23.832C87.5009 23.672 87.2929 23.424 87.1489 23.088L82.6849 13.2C82.6529 13.12 82.6129 13.016 82.5649 12.888C82.5329 12.76 82.5169 12.608 82.5169 12.432C82.5169 12.144 82.6449 11.864 82.9009 11.592C83.1569 11.304 83.5009 11.16 83.9329 11.16ZM109.172 17.592C109.172 18.904 108.876 20.064 108.284 21.072C107.708 22.064 106.924 22.84 105.932 23.4C104.956 23.96 103.86 24.24 102.644 24.24C101.428 24.24 100.324 23.96 99.3323 23.4C98.3563 22.84 97.5723 22.064 96.9803 21.072C96.4043 20.064 96.1163 18.904 96.1163 17.592C96.1163 16.28 96.4043 15.128 96.9803 14.136C97.5723 13.128 98.3563 12.344 99.3323 11.784C100.324 11.208 101.428 10.92 102.644 10.92C103.86 10.92 104.956 11.208 105.932 11.784C106.924 12.344 107.708 13.128 108.284 14.136C108.876 15.128 109.172 16.28 109.172 17.592ZM106.292 17.592C106.292 16.776 106.124 16.072 105.788 15.48C105.468 14.872 105.028 14.4 104.468 14.064C103.924 13.728 103.316 13.56 102.644 13.56C101.972 13.56 101.356 13.728 100.796 14.064C100.252 14.4 99.8123 14.872 99.4763 15.48C99.1563 16.072 98.9963 16.776 98.9963 17.592C98.9963 18.392 99.1563 19.096 99.4763 19.704C99.8123 20.296 100.252 20.76 100.796 21.096C101.356 21.432 101.972 21.6 102.644 21.6C103.316 21.6 103.924 21.432 104.468 21.096C105.028 20.76 105.468 20.296 105.788 19.704C106.124 19.096 106.292 18.392 106.292 17.592ZM113.133 24C112.717 24 112.373 23.864 112.101 23.592C111.829 23.304 111.693 22.952 111.693 22.536V12.624C111.693 12.208 111.829 11.864 112.101 11.592C112.373 11.304 112.717 11.16 113.133 11.16C113.549 11.16 113.893 11.304 114.165 11.592C114.437 11.864 114.573 12.208 114.573 12.624V14.88L114.405 13.272C114.581 12.888 114.805 12.552 115.077 12.264C115.365 11.96 115.685 11.712 116.037 11.52C116.389 11.312 116.765 11.16 117.165 11.064C117.565 10.968 117.965 10.92 118.365 10.92C118.845 10.92 119.245 11.056 119.565 11.328C119.901 11.6 120.069 11.92 120.069 12.288C120.069 12.816 119.933 13.2 119.661 13.44C119.389 13.664 119.093 13.776 118.773 13.776C118.469 13.776 118.189 13.72 117.933 13.608C117.693 13.496 117.413 13.44 117.093 13.44C116.805 13.44 116.509 13.512 116.205 13.656C115.917 13.784 115.645 13.992 115.389 14.28C115.149 14.568 114.949 14.928 114.789 15.36C114.645 15.776 114.573 16.272 114.573 16.848V22.536C114.573 22.952 114.437 23.304 114.165 23.592C113.893 23.864 113.549 24 113.133 24ZM124.811 22.536C124.811 22.952 124.675 23.304 124.403 23.592C124.131 23.864 123.787 24 123.371 24C122.955 24 122.611 23.864 122.339 23.592C122.067 23.304 121.931 22.952 121.931 22.536V12.624C121.931 12.208 122.067 11.864 122.339 11.592C122.611 11.304 122.955 11.16 123.371 11.16C123.787 11.16 124.131 11.304 124.403 11.592C124.675 11.864 124.811 12.208 124.811 12.624V22.536ZM123.347 9.6C122.803 9.6 122.419 9.512 122.195 9.336C121.971 9.16 121.859 8.848 121.859 8.4V7.944C121.859 7.48 121.979 7.168 122.219 7.008C122.475 6.832 122.859 6.744 123.371 6.744C123.931 6.744 124.323 6.832 124.547 7.008C124.771 7.184 124.883 7.496 124.883 7.944V8.4C124.883 8.864 124.763 9.184 124.523 9.36C124.283 9.52 123.891 9.6 123.347 9.6ZM127.915 11.4H133.603C133.987 11.4 134.307 11.528 134.563 11.784C134.819 12.04 134.947 12.36 134.947 12.744C134.947 13.112 134.819 13.424 134.563 13.68C134.307 13.92 133.987 14.04 133.603 14.04H127.915C127.531 14.04 127.211 13.912 126.955 13.656C126.699 13.4 126.571 13.08 126.571 12.696C126.571 12.328 126.699 12.024 126.955 11.784C127.211 11.528 127.531 11.4 127.915 11.4ZM130.483 8.4C130.899 8.4 131.235 8.544 131.491 8.832C131.763 9.104 131.899 9.448 131.899 9.864V20.544C131.899 20.768 131.939 20.952 132.019 21.096C132.115 21.24 132.235 21.344 132.379 21.408C132.539 21.472 132.707 21.504 132.883 21.504C133.075 21.504 133.251 21.472 133.411 21.408C133.571 21.328 133.755 21.288 133.963 21.288C134.187 21.288 134.387 21.392 134.563 21.6C134.755 21.808 134.851 22.096 134.851 22.464C134.851 22.912 134.603 23.28 134.107 23.568C133.627 23.856 133.107 24 132.547 24C132.211 24 131.835 23.976 131.419 23.928C131.019 23.864 130.635 23.728 130.267 23.52C129.915 23.296 129.619 22.96 129.379 22.512C129.139 22.064 129.019 21.448 129.019 20.664V9.864C129.019 9.448 129.155 9.104 129.427 8.832C129.715 8.544 130.067 8.4 130.483 8.4ZM143.522 24.24C142.162 24.24 140.978 23.96 139.97 23.4C138.978 22.824 138.21 22.048 137.666 21.072C137.138 20.096 136.874 18.992 136.874 17.76C136.874 16.32 137.162 15.096 137.738 14.088C138.33 13.064 139.098 12.28 140.042 11.736C140.986 11.192 141.986 10.92 143.042 10.92C143.858 10.92 144.626 11.088 145.346 11.424C146.082 11.76 146.73 12.224 147.29 12.816C147.85 13.392 148.29 14.064 148.61 14.832C148.946 15.6 149.114 16.416 149.114 17.28C149.098 17.664 148.946 17.976 148.658 18.216C148.37 18.456 148.034 18.576 147.65 18.576H138.482L137.762 16.176H146.57L146.042 16.656V16.008C146.01 15.544 145.842 15.128 145.538 14.76C145.25 14.392 144.882 14.104 144.434 13.896C144.002 13.672 143.538 13.56 143.042 13.56C142.562 13.56 142.114 13.624 141.698 13.752C141.282 13.88 140.922 14.096 140.618 14.4C140.314 14.704 140.074 15.112 139.898 15.624C139.722 16.136 139.634 16.784 139.634 17.568C139.634 18.432 139.81 19.168 140.162 19.776C140.53 20.368 140.994 20.824 141.554 21.144C142.13 21.448 142.738 21.6 143.378 21.6C143.97 21.6 144.442 21.552 144.794 21.456C145.146 21.36 145.426 21.248 145.634 21.12C145.858 20.976 146.058 20.856 146.234 20.76C146.522 20.616 146.794 20.544 147.05 20.544C147.402 20.544 147.69 20.664 147.914 20.904C148.154 21.144 148.274 21.424 148.274 21.744C148.274 22.176 148.05 22.568 147.602 22.92C147.186 23.272 146.602 23.584 145.85 23.856C145.098 24.112 144.322 24.24 143.522 24.24Z" fill="white"/>
<path d="M17.5516 2C15.8434 2 14.2206 2.704 13.0249 3.936L12 4.992L11.0605 4.024C8.58363 1.384 4.48399 1.384 2.00712 3.936L1.92171 4.024C-0.640569 6.664 -0.640569 10.888 1.92171 13.528L12 24L22.0783 13.528C24.6406 10.888 24.6406 6.664 22.0783 4.024C20.8826 2.704 19.2598 2 17.5516 2Z" fill="#8A8A8A"/>
</svg>
