<svg width="14" height="15" viewBox="0 0 14 15" fill="none" xmlns="http://www.w3.org/2000/svg">
<rect width="14" height="15" rx="7" fill="white"/>
<path d="M6.27246 7.69434L5.33496 7.46484L5.7207 3.89062H9.55371V4.88672H6.69727L6.50195 6.62988C6.61263 6.56478 6.76562 6.5013 6.96094 6.43945C7.15625 6.37435 7.37923 6.3418 7.62988 6.3418C7.96517 6.3418 8.26465 6.39714 8.52832 6.50781C8.79525 6.61523 9.02148 6.77311 9.20703 6.98145C9.39258 7.18652 9.53418 7.43717 9.63184 7.7334C9.72949 8.02637 9.77832 8.35677 9.77832 8.72461C9.77832 9.05339 9.72949 9.361 9.63184 9.64746C9.53743 9.93392 9.39421 10.1862 9.20215 10.4043C9.01009 10.6224 8.76758 10.7933 8.47461 10.917C8.1849 11.0374 7.84147 11.0977 7.44434 11.0977C7.14811 11.0977 6.86328 11.0553 6.58984 10.9707C6.31966 10.8828 6.07715 10.7542 5.8623 10.585C5.64746 10.4124 5.47493 10.2008 5.34473 9.9502C5.21452 9.69629 5.13965 9.40495 5.12012 9.07617H6.27246C6.30176 9.30729 6.36523 9.50423 6.46289 9.66699C6.5638 9.8265 6.69727 9.94857 6.86328 10.0332C7.0293 10.1178 7.22135 10.1602 7.43945 10.1602C7.63802 10.1602 7.80892 10.126 7.95215 10.0576C8.09538 9.986 8.21419 9.88509 8.30859 9.75488C8.40625 9.62142 8.47786 9.46517 8.52344 9.28613C8.57227 9.1071 8.59668 8.90853 8.59668 8.69043C8.59668 8.4821 8.56901 8.29167 8.51367 8.11914C8.46159 7.94661 8.38184 7.79688 8.27441 7.66992C8.17025 7.54297 8.03841 7.44531 7.87891 7.37695C7.7194 7.30534 7.53548 7.26953 7.32715 7.26953C7.0472 7.26953 6.83236 7.31022 6.68262 7.3916C6.53613 7.47298 6.39941 7.57389 6.27246 7.69434Z" fill="#DA00FE"/>
</svg>
