<svg width="277" height="32" viewBox="0 0 277 32" fill="none" xmlns="http://www.w3.org/2000/svg">
<path d="M65.72 24.24C64.504 24.24 63.368 24.016 62.312 23.568C61.256 23.12 60.328 22.504 59.528 21.72C58.728 20.92 58.096 20 57.632 18.96C57.184 17.92 56.96 16.8 56.96 15.6C56.96 14.4 57.184 13.28 57.632 12.24C58.096 11.2 58.728 10.288 59.528 9.504C60.328 8.704 61.256 8.08 62.312 7.632C63.368 7.184 64.504 6.96 65.72 6.96C66.472 6.96 67.2 7.04 67.904 7.2C68.608 7.36 69.256 7.6 69.848 7.92C70.088 8.048 70.264 8.224 70.376 8.448C70.504 8.656 70.568 8.872 70.568 9.096C70.568 9.48 70.44 9.824 70.184 10.128C69.928 10.432 69.6 10.584 69.2 10.584C69.072 10.584 68.936 10.568 68.792 10.536C68.664 10.504 68.536 10.456 68.408 10.392C68.008 10.216 67.584 10.08 67.136 9.984C66.688 9.888 66.216 9.84 65.72 9.84C64.68 9.84 63.728 10.104 62.864 10.632C62.016 11.144 61.336 11.84 60.824 12.72C60.328 13.584 60.08 14.544 60.08 15.6C60.08 16.64 60.328 17.6 60.824 18.48C61.336 19.36 62.016 20.064 62.864 20.592C63.728 21.104 64.68 21.36 65.72 21.36C66.2 21.36 66.728 21.312 67.304 21.216C67.88 21.12 68.352 20.992 68.72 20.832L68.504 21.552V17.448L68.912 17.808H66.248C65.832 17.808 65.48 17.672 65.192 17.4C64.92 17.128 64.784 16.784 64.784 16.368C64.784 15.952 64.92 15.608 65.192 15.336C65.48 15.064 65.832 14.928 66.248 14.928H70.184C70.6 14.928 70.944 15.072 71.216 15.36C71.488 15.632 71.624 15.976 71.624 16.392V21.48C71.624 21.8 71.544 22.064 71.384 22.272C71.24 22.48 71.072 22.648 70.88 22.776C70.144 23.224 69.336 23.584 68.456 23.856C67.592 24.112 66.68 24.24 65.72 24.24ZM85.1111 10.92C85.5271 10.92 85.8711 11.056 86.1431 11.328C86.4151 11.6 86.5511 11.952 86.5511 12.384V22.536C86.5511 22.952 86.4151 23.304 86.1431 23.592C85.8711 23.864 85.5271 24 85.1111 24C84.6951 24 84.3511 23.864 84.0791 23.592C83.8071 23.304 83.6711 22.952 83.6711 22.536V21.36L84.1991 21.576C84.1991 21.784 84.0871 22.04 83.8631 22.344C83.6391 22.632 83.3351 22.92 82.9511 23.208C82.5671 23.496 82.1111 23.744 81.5831 23.952C81.0711 24.144 80.5111 24.24 79.9031 24.24C78.7991 24.24 77.7991 23.96 76.9031 23.4C76.0071 22.824 75.2951 22.04 74.7671 21.048C74.2551 20.04 73.9991 18.888 73.9991 17.592C73.9991 16.28 74.2551 15.128 74.7671 14.136C75.2951 13.128 75.9991 12.344 76.8791 11.784C77.7591 11.208 78.7351 10.92 79.8071 10.92C80.4951 10.92 81.1271 11.024 81.7031 11.232C82.2791 11.44 82.7751 11.704 83.1911 12.024C83.6231 12.344 83.9511 12.672 84.1751 13.008C84.4151 13.328 84.5351 13.6 84.5351 13.824L83.6711 14.136V12.384C83.6711 11.968 83.8071 11.624 84.0791 11.352C84.3511 11.064 84.6951 10.92 85.1111 10.92ZM80.2631 21.6C80.9671 21.6 81.5831 21.424 82.1111 21.072C82.6391 20.72 83.0471 20.24 83.3351 19.632C83.6391 19.024 83.7911 18.344 83.7911 17.592C83.7911 16.824 83.6391 16.136 83.3351 15.528C83.0471 14.92 82.6391 14.44 82.1111 14.088C81.5831 13.736 80.9671 13.56 80.2631 13.56C79.5751 13.56 78.9671 13.736 78.4391 14.088C77.9111 14.44 77.4951 14.92 77.1911 15.528C76.9031 16.136 76.7591 16.824 76.7591 17.592C76.7591 18.344 76.9031 19.024 77.1911 19.632C77.4951 20.24 77.9111 20.72 78.4391 21.072C78.9671 21.424 79.5751 21.6 80.2631 21.6ZM96.4134 10.92C97.6934 10.92 98.6374 11.232 99.2454 11.856C99.8534 12.464 100.253 13.256 100.445 14.232L100.037 14.016L100.229 13.632C100.421 13.264 100.717 12.872 101.117 12.456C101.517 12.024 101.997 11.664 102.557 11.376C103.133 11.072 103.773 10.92 104.477 10.92C105.629 10.92 106.501 11.168 107.093 11.664C107.701 12.16 108.117 12.824 108.341 13.656C108.565 14.472 108.677 15.384 108.677 16.392V22.536C108.677 22.952 108.541 23.304 108.269 23.592C107.997 23.864 107.653 24 107.237 24C106.821 24 106.477 23.864 106.205 23.592C105.933 23.304 105.797 22.952 105.797 22.536V16.392C105.797 15.864 105.733 15.392 105.605 14.976C105.477 14.544 105.245 14.2 104.909 13.944C104.573 13.688 104.093 13.56 103.469 13.56C102.861 13.56 102.341 13.688 101.909 13.944C101.477 14.2 101.149 14.544 100.925 14.976C100.717 15.392 100.613 15.864 100.613 16.392V22.536C100.613 22.952 100.477 23.304 100.205 23.592C99.9334 23.864 99.5894 24 99.1734 24C98.7574 24 98.4134 23.864 98.1414 23.592C97.8694 23.304 97.7334 22.952 97.7334 22.536V16.392C97.7334 15.864 97.6694 15.392 97.5414 14.976C97.4134 14.544 97.1814 14.2 96.8454 13.944C96.5094 13.688 96.0294 13.56 95.4054 13.56C94.7974 13.56 94.2774 13.688 93.8454 13.944C93.4134 14.2 93.0854 14.544 92.8614 14.976C92.6534 15.392 92.5494 15.864 92.5494 16.392V22.536C92.5494 22.952 92.4134 23.304 92.1414 23.592C91.8694 23.864 91.5254 24 91.1094 24C90.6934 24 90.3494 23.864 90.0774 23.592C89.8054 23.304 89.6694 22.952 89.6694 22.536V12.624C89.6694 12.208 89.8054 11.864 90.0774 11.592C90.3494 11.304 90.6934 11.16 91.1094 11.16C91.5254 11.16 91.8694 11.304 92.1414 11.592C92.4134 11.864 92.5494 12.208 92.5494 12.624V13.656L92.1894 13.584C92.3334 13.312 92.5334 13.024 92.7894 12.72C93.0454 12.4 93.3574 12.104 93.7254 11.832C94.0934 11.56 94.5014 11.344 94.9494 11.184C95.3974 11.008 95.8854 10.92 96.4134 10.92ZM117.842 24.24C116.482 24.24 115.298 23.96 114.29 23.4C113.298 22.824 112.53 22.048 111.986 21.072C111.458 20.096 111.194 18.992 111.194 17.76C111.194 16.32 111.482 15.096 112.058 14.088C112.65 13.064 113.418 12.28 114.362 11.736C115.306 11.192 116.306 10.92 117.362 10.92C118.178 10.92 118.946 11.088 119.666 11.424C120.402 11.76 121.05 12.224 121.61 12.816C122.17 13.392 122.61 14.064 122.93 14.832C123.266 15.6 123.434 16.416 123.434 17.28C123.418 17.664 123.266 17.976 122.978 18.216C122.69 18.456 122.354 18.576 121.97 18.576H112.802L112.082 16.176H120.89L120.362 16.656V16.008C120.33 15.544 120.162 15.128 119.858 14.76C119.57 14.392 119.202 14.104 118.754 13.896C118.322 13.672 117.858 13.56 117.362 13.56C116.882 13.56 116.434 13.624 116.018 13.752C115.602 13.88 115.242 14.096 114.938 14.4C114.634 14.704 114.394 15.112 114.218 15.624C114.042 16.136 113.954 16.784 113.954 17.568C113.954 18.432 114.13 19.168 114.482 19.776C114.85 20.368 115.314 20.824 115.874 21.144C116.45 21.448 117.058 21.6 117.698 21.6C118.29 21.6 118.762 21.552 119.114 21.456C119.466 21.36 119.746 21.248 119.954 21.12C120.178 20.976 120.378 20.856 120.554 20.76C120.842 20.616 121.114 20.544 121.37 20.544C121.722 20.544 122.01 20.664 122.234 20.904C122.474 21.144 122.594 21.424 122.594 21.744C122.594 22.176 122.37 22.568 121.922 22.92C121.506 23.272 120.922 23.584 120.17 23.856C119.418 24.112 118.642 24.24 117.842 24.24ZM134.453 7.2C134.837 7.2 135.173 7.344 135.461 7.632C135.765 7.904 135.917 8.248 135.917 8.664V22.536C135.917 22.952 135.765 23.304 135.461 23.592C135.157 23.864 134.805 24 134.405 24C133.957 24 133.597 23.864 133.325 23.592C133.053 23.304 132.917 22.952 132.917 22.536V8.664C132.917 8.248 133.061 7.904 133.349 7.632C133.637 7.344 134.005 7.2 134.453 7.2ZM145.085 7.2C145.533 7.2 145.893 7.344 146.165 7.632C146.437 7.904 146.573 8.248 146.573 8.664V22.536C146.573 22.952 146.429 23.304 146.141 23.592C145.869 23.864 145.501 24 145.037 24C144.653 24 144.309 23.864 144.005 23.592C143.717 23.304 143.573 22.952 143.573 22.536V8.664C143.573 8.248 143.725 7.904 144.029 7.632C144.333 7.344 144.685 7.2 145.085 7.2ZM134.381 14.184H145.085V16.944H134.381V14.184ZM155.975 24.24C154.615 24.24 153.431 23.96 152.423 23.4C151.431 22.824 150.663 22.048 150.119 21.072C149.591 20.096 149.327 18.992 149.327 17.76C149.327 16.32 149.615 15.096 150.191 14.088C150.783 13.064 151.551 12.28 152.495 11.736C153.439 11.192 154.439 10.92 155.495 10.92C156.311 10.92 157.079 11.088 157.799 11.424C158.535 11.76 159.183 12.224 159.743 12.816C160.303 13.392 160.743 14.064 161.063 14.832C161.399 15.6 161.567 16.416 161.567 17.28C161.551 17.664 161.399 17.976 161.111 18.216C160.823 18.456 160.487 18.576 160.103 18.576H150.935L150.215 16.176H159.023L158.495 16.656V16.008C158.463 15.544 158.295 15.128 157.991 14.76C157.703 14.392 157.335 14.104 156.887 13.896C156.455 13.672 155.991 13.56 155.495 13.56C155.015 13.56 154.567 13.624 154.151 13.752C153.735 13.88 153.375 14.096 153.071 14.4C152.767 14.704 152.527 15.112 152.351 15.624C152.175 16.136 152.087 16.784 152.087 17.568C152.087 18.432 152.263 19.168 152.615 19.776C152.983 20.368 153.447 20.824 154.007 21.144C154.583 21.448 155.191 21.6 155.831 21.6C156.423 21.6 156.895 21.552 157.247 21.456C157.599 21.36 157.879 21.248 158.087 21.12C158.311 20.976 158.511 20.856 158.687 20.76C158.975 20.616 159.247 20.544 159.503 20.544C159.855 20.544 160.143 20.664 160.367 20.904C160.607 21.144 160.727 21.424 160.727 21.744C160.727 22.176 160.503 22.568 160.055 22.92C159.639 23.272 159.055 23.584 158.303 23.856C157.551 24.112 156.775 24.24 155.975 24.24ZM174.689 10.92C175.105 10.92 175.449 11.056 175.721 11.328C175.993 11.6 176.129 11.952 176.129 12.384V22.536C176.129 22.952 175.993 23.304 175.721 23.592C175.449 23.864 175.105 24 174.689 24C174.273 24 173.929 23.864 173.657 23.592C173.385 23.304 173.249 22.952 173.249 22.536V21.36L173.777 21.576C173.777 21.784 173.665 22.04 173.441 22.344C173.217 22.632 172.913 22.92 172.529 23.208C172.145 23.496 171.689 23.744 171.161 23.952C170.649 24.144 170.089 24.24 169.481 24.24C168.377 24.24 167.377 23.96 166.481 23.4C165.585 22.824 164.873 22.04 164.345 21.048C163.833 20.04 163.577 18.888 163.577 17.592C163.577 16.28 163.833 15.128 164.345 14.136C164.873 13.128 165.577 12.344 166.457 11.784C167.337 11.208 168.313 10.92 169.385 10.92C170.073 10.92 170.705 11.024 171.281 11.232C171.857 11.44 172.353 11.704 172.769 12.024C173.201 12.344 173.529 12.672 173.753 13.008C173.993 13.328 174.113 13.6 174.113 13.824L173.249 14.136V12.384C173.249 11.968 173.385 11.624 173.657 11.352C173.929 11.064 174.273 10.92 174.689 10.92ZM169.841 21.6C170.545 21.6 171.161 21.424 171.689 21.072C172.217 20.72 172.625 20.24 172.913 19.632C173.217 19.024 173.369 18.344 173.369 17.592C173.369 16.824 173.217 16.136 172.913 15.528C172.625 14.92 172.217 14.44 171.689 14.088C171.161 13.736 170.545 13.56 169.841 13.56C169.153 13.56 168.545 13.736 168.017 14.088C167.489 14.44 167.073 14.92 166.769 15.528C166.481 16.136 166.337 16.824 166.337 17.592C166.337 18.344 166.481 19.024 166.769 19.632C167.073 20.24 167.489 20.72 168.017 21.072C168.545 21.424 169.153 21.6 169.841 21.6ZM189.76 6.24C190.176 6.24 190.52 6.376 190.792 6.648C191.064 6.92 191.2 7.272 191.2 7.704V22.536C191.2 22.952 191.064 23.304 190.792 23.592C190.52 23.864 190.176 24 189.76 24C189.344 24 189 23.864 188.728 23.592C188.456 23.304 188.32 22.952 188.32 22.536V21.36L188.848 21.576C188.848 21.784 188.736 22.04 188.512 22.344C188.288 22.632 187.984 22.92 187.6 23.208C187.216 23.496 186.76 23.744 186.232 23.952C185.72 24.144 185.16 24.24 184.552 24.24C183.448 24.24 182.448 23.96 181.552 23.4C180.656 22.824 179.944 22.04 179.416 21.048C178.904 20.04 178.648 18.888 178.648 17.592C178.648 16.28 178.904 15.128 179.416 14.136C179.944 13.128 180.648 12.344 181.528 11.784C182.408 11.208 183.384 10.92 184.456 10.92C185.144 10.92 185.776 11.024 186.352 11.232C186.928 11.44 187.424 11.704 187.84 12.024C188.272 12.344 188.6 12.672 188.824 13.008C189.064 13.328 189.184 13.6 189.184 13.824L188.32 14.136V7.704C188.32 7.288 188.456 6.944 188.728 6.672C189 6.384 189.344 6.24 189.76 6.24ZM184.912 21.6C185.616 21.6 186.232 21.424 186.76 21.072C187.288 20.72 187.696 20.24 187.984 19.632C188.288 19.024 188.44 18.344 188.44 17.592C188.44 16.824 188.288 16.136 187.984 15.528C187.696 14.92 187.288 14.44 186.76 14.088C186.232 13.736 185.616 13.56 184.912 13.56C184.224 13.56 183.616 13.736 183.088 14.088C182.56 14.44 182.144 14.92 181.84 15.528C181.552 16.136 181.408 16.824 181.408 17.592C181.408 18.344 181.552 19.024 181.84 19.632C182.144 20.24 182.56 20.72 183.088 21.072C183.616 21.424 184.224 21.6 184.912 21.6ZM200.966 10.92C202.086 10.92 203.086 11.208 203.966 11.784C204.862 12.344 205.566 13.12 206.078 14.112C206.606 15.104 206.87 16.256 206.87 17.568C206.87 18.88 206.606 20.04 206.078 21.048C205.566 22.04 204.87 22.824 203.99 23.4C203.126 23.96 202.15 24.24 201.062 24.24C200.422 24.24 199.822 24.136 199.262 23.928C198.702 23.72 198.206 23.456 197.774 23.136C197.358 22.816 197.03 22.496 196.79 22.176C196.566 21.84 196.454 21.56 196.454 21.336L197.198 21.024V27.336C197.198 27.752 197.062 28.096 196.79 28.368C196.518 28.656 196.174 28.8 195.758 28.8C195.342 28.8 194.998 28.664 194.726 28.392C194.454 28.12 194.318 27.768 194.318 27.336V12.624C194.318 12.208 194.454 11.864 194.726 11.592C194.998 11.304 195.342 11.16 195.758 11.16C196.174 11.16 196.518 11.304 196.79 11.592C197.062 11.864 197.198 12.208 197.198 12.624V13.8L196.79 13.584C196.79 13.376 196.902 13.128 197.126 12.84C197.35 12.536 197.654 12.24 198.038 11.952C198.422 11.648 198.862 11.4 199.358 11.208C199.87 11.016 200.406 10.92 200.966 10.92ZM200.606 13.56C199.902 13.56 199.286 13.736 198.758 14.088C198.23 14.44 197.814 14.92 197.51 15.528C197.222 16.12 197.078 16.8 197.078 17.568C197.078 18.32 197.222 19.008 197.51 19.632C197.814 20.24 198.23 20.72 198.758 21.072C199.286 21.424 199.902 21.6 200.606 21.6C201.31 21.6 201.918 21.424 202.43 21.072C202.958 20.72 203.366 20.24 203.654 19.632C203.958 19.008 204.11 18.32 204.11 17.568C204.11 16.8 203.958 16.12 203.654 15.528C203.366 14.92 202.958 14.44 202.43 14.088C201.918 13.736 201.31 13.56 200.606 13.56ZM216.132 10.92C217.284 10.92 218.156 11.168 218.748 11.664C219.356 12.16 219.772 12.824 219.996 13.656C220.22 14.472 220.332 15.384 220.332 16.392V22.536C220.332 22.952 220.196 23.304 219.924 23.592C219.652 23.864 219.308 24 218.892 24C218.476 24 218.132 23.864 217.86 23.592C217.588 23.304 217.452 22.952 217.452 22.536V16.392C217.452 15.864 217.388 15.392 217.26 14.976C217.132 14.544 216.9 14.2 216.564 13.944C216.228 13.688 215.748 13.56 215.124 13.56C214.516 13.56 213.996 13.688 213.564 13.944C213.132 14.2 212.804 14.544 212.58 14.976C212.372 15.392 212.268 15.864 212.268 16.392V22.536C212.268 22.952 212.132 23.304 211.86 23.592C211.588 23.864 211.244 24 210.828 24C210.412 24 210.068 23.864 209.796 23.592C209.524 23.304 209.388 22.952 209.388 22.536V7.704C209.388 7.288 209.524 6.944 209.796 6.672C210.068 6.384 210.412 6.24 210.828 6.24C211.244 6.24 211.588 6.384 211.86 6.672C212.132 6.944 212.268 7.288 212.268 7.704V13.656L211.908 13.584C212.052 13.312 212.252 13.024 212.508 12.72C212.764 12.4 213.076 12.104 213.444 11.832C213.812 11.56 214.22 11.344 214.668 11.184C215.116 11.008 215.604 10.92 216.132 10.92ZM235.907 17.592C235.907 18.904 235.611 20.064 235.019 21.072C234.443 22.064 233.659 22.84 232.667 23.4C231.691 23.96 230.595 24.24 229.379 24.24C228.163 24.24 227.059 23.96 226.067 23.4C225.091 22.84 224.307 22.064 223.715 21.072C223.139 20.064 222.851 18.904 222.851 17.592C222.851 16.28 223.139 15.128 223.715 14.136C224.307 13.128 225.091 12.344 226.067 11.784C227.059 11.208 228.163 10.92 229.379 10.92C230.595 10.92 231.691 11.208 232.667 11.784C233.659 12.344 234.443 13.128 235.019 14.136C235.611 15.128 235.907 16.28 235.907 17.592ZM233.027 17.592C233.027 16.776 232.859 16.072 232.523 15.48C232.203 14.872 231.763 14.4 231.203 14.064C230.659 13.728 230.051 13.56 229.379 13.56C228.707 13.56 228.091 13.728 227.531 14.064C226.987 14.4 226.547 14.872 226.211 15.48C225.891 16.072 225.731 16.776 225.731 17.592C225.731 18.392 225.891 19.096 226.211 19.704C226.547 20.296 226.987 20.76 227.531 21.096C228.091 21.432 228.707 21.6 229.379 21.6C230.051 21.6 230.659 21.432 231.203 21.096C231.763 20.76 232.203 20.296 232.523 19.704C232.859 19.096 233.027 18.392 233.027 17.592ZM245.291 10.92C246.475 10.92 247.371 11.168 247.979 11.664C248.603 12.16 249.027 12.824 249.251 13.656C249.491 14.472 249.611 15.384 249.611 16.392V22.536C249.611 22.952 249.475 23.304 249.203 23.592C248.931 23.864 248.587 24 248.171 24C247.755 24 247.411 23.864 247.139 23.592C246.867 23.304 246.731 22.952 246.731 22.536V16.392C246.731 15.864 246.659 15.392 246.515 14.976C246.387 14.544 246.147 14.2 245.795 13.944C245.443 13.688 244.939 13.56 244.283 13.56C243.643 13.56 243.099 13.688 242.651 13.944C242.219 14.2 241.883 14.544 241.643 14.976C241.419 15.392 241.307 15.864 241.307 16.392V22.536C241.307 22.952 241.171 23.304 240.899 23.592C240.627 23.864 240.283 24 239.867 24C239.451 24 239.107 23.864 238.835 23.592C238.563 23.304 238.427 22.952 238.427 22.536V12.624C238.427 12.208 238.563 11.864 238.835 11.592C239.107 11.304 239.451 11.16 239.867 11.16C240.283 11.16 240.627 11.304 240.899 11.592C241.171 11.864 241.307 12.208 241.307 12.624V13.656L240.947 13.584C241.091 13.312 241.299 13.024 241.571 12.72C241.843 12.4 242.163 12.104 242.531 11.832C242.899 11.56 243.315 11.344 243.779 11.184C244.243 11.008 244.747 10.92 245.291 10.92ZM258.772 24.24C257.412 24.24 256.228 23.96 255.22 23.4C254.228 22.824 253.46 22.048 252.916 21.072C252.388 20.096 252.124 18.992 252.124 17.76C252.124 16.32 252.412 15.096 252.988 14.088C253.58 13.064 254.348 12.28 255.292 11.736C256.236 11.192 257.236 10.92 258.292 10.92C259.108 10.92 259.876 11.088 260.596 11.424C261.332 11.76 261.98 12.224 262.54 12.816C263.1 13.392 263.54 14.064 263.86 14.832C264.196 15.6 264.364 16.416 264.364 17.28C264.348 17.664 264.196 17.976 263.908 18.216C263.62 18.456 263.284 18.576 262.9 18.576H253.732L253.012 16.176H261.82L261.292 16.656V16.008C261.26 15.544 261.092 15.128 260.788 14.76C260.5 14.392 260.132 14.104 259.684 13.896C259.252 13.672 258.788 13.56 258.292 13.56C257.812 13.56 257.364 13.624 256.948 13.752C256.532 13.88 256.172 14.096 255.868 14.4C255.564 14.704 255.324 15.112 255.148 15.624C254.972 16.136 254.884 16.784 254.884 17.568C254.884 18.432 255.06 19.168 255.412 19.776C255.78 20.368 256.244 20.824 256.804 21.144C257.38 21.448 257.988 21.6 258.628 21.6C259.22 21.6 259.692 21.552 260.044 21.456C260.396 21.36 260.676 21.248 260.884 21.12C261.108 20.976 261.308 20.856 261.484 20.76C261.772 20.616 262.044 20.544 262.3 20.544C262.652 20.544 262.94 20.664 263.164 20.904C263.404 21.144 263.524 21.424 263.524 21.744C263.524 22.176 263.3 22.568 262.852 22.92C262.436 23.272 261.852 23.584 261.1 23.856C260.348 24.112 259.572 24.24 258.772 24.24ZM266.136 22.008C265.976 21.784 265.904 21.496 265.92 21.144C265.936 20.792 266.144 20.488 266.544 20.232C266.8 20.072 267.072 20.008 267.36 20.04C267.648 20.056 267.928 20.2 268.2 20.472C268.664 20.936 269.152 21.296 269.664 21.552C270.176 21.808 270.816 21.936 271.584 21.936C271.824 21.92 272.088 21.888 272.376 21.84C272.664 21.776 272.912 21.648 273.12 21.456C273.344 21.248 273.456 20.936 273.456 20.52C273.456 20.168 273.336 19.888 273.096 19.68C272.856 19.472 272.536 19.296 272.136 19.152C271.752 19.008 271.32 18.872 270.84 18.744C270.344 18.6 269.832 18.44 269.304 18.264C268.792 18.088 268.32 17.864 267.888 17.592C267.456 17.304 267.104 16.928 266.832 16.464C266.56 16 266.424 15.416 266.424 14.712C266.424 13.912 266.648 13.232 267.096 12.672C267.544 12.112 268.12 11.68 268.824 11.376C269.544 11.072 270.296 10.92 271.08 10.92C271.576 10.92 272.096 10.984 272.64 11.112C273.184 11.224 273.704 11.416 274.2 11.688C274.696 11.944 275.112 12.288 275.448 12.72C275.624 12.96 275.728 13.248 275.76 13.584C275.792 13.92 275.64 14.224 275.304 14.496C275.064 14.688 274.784 14.776 274.464 14.76C274.144 14.728 273.88 14.616 273.672 14.424C273.4 14.072 273.032 13.792 272.568 13.584C272.12 13.376 271.6 13.272 271.008 13.272C270.768 13.272 270.504 13.304 270.216 13.368C269.944 13.416 269.704 13.536 269.496 13.728C269.288 13.904 269.184 14.192 269.184 14.592C269.184 14.96 269.304 15.256 269.544 15.48C269.784 15.688 270.104 15.864 270.504 16.008C270.92 16.136 271.36 16.264 271.824 16.392C272.304 16.52 272.792 16.672 273.288 16.848C273.784 17.024 274.24 17.256 274.656 17.544C275.072 17.832 275.408 18.208 275.664 18.672C275.92 19.12 276.048 19.696 276.048 20.4C276.048 21.216 275.808 21.912 275.328 22.488C274.848 23.064 274.248 23.504 273.528 23.808C272.808 24.096 272.072 24.24 271.32 24.24C270.376 24.24 269.432 24.08 268.488 23.76C267.544 23.424 266.76 22.84 266.136 22.008Z" fill="#8A8A8A"/>
<path d="M16 6C13.3478 6 10.8043 7.05357 8.92893 8.92893C7.05357 10.8043 6 13.3478 6 16V18H8C8.53043 18 9.03914 18.2107 9.41421 18.5858C9.78929 18.9609 10 19.4696 10 20V26C10 26.5304 9.78929 27.0391 9.41421 27.4142C9.03914 27.7893 8.53043 28 8 28H6C5.46957 28 4.96086 27.7893 4.58579 27.4142C4.21071 27.0391 4 26.5304 4 26V16C4 14.4241 4.31039 12.8637 4.91345 11.4078C5.5165 9.95189 6.40042 8.62902 7.51472 7.51472C8.62902 6.40042 9.95189 5.5165 11.4078 4.91345C12.8637 4.31039 14.4241 4 16 4C17.5759 4 19.1363 4.31039 20.5922 4.91345C22.0481 5.5165 23.371 6.40042 24.4853 7.51472C25.5996 8.62902 26.4835 9.95189 27.0866 11.4078C27.6896 12.8637 28 14.4241 28 16V26C28 26.5304 27.7893 27.0391 27.4142 27.4142C27.0391 27.7893 26.5304 28 26 28H24C23.4696 28 22.9609 27.7893 22.5858 27.4142C22.2107 27.0391 22 26.5304 22 26V20C22 19.4696 22.2107 18.9609 22.5858 18.5858C22.9609 18.2107 23.4696 18 24 18H26V16C26 13.3478 24.9464 10.8043 23.0711 8.92893C21.1957 7.05357 18.6522 6 16 6Z" fill="#8A8A8A"/>
</svg>
