<svg width="170" height="33" viewBox="0 0 170 33" fill="none" xmlns="http://www.w3.org/2000/svg">
<path d="M69.368 27C68.92 27 68.56 26.816 68.288 26.448L62.744 19.152L64.928 16.92L70.664 24.504C70.888 24.808 71 25.136 71 25.488C71 25.936 70.832 26.304 70.496 26.592C70.16 26.864 69.784 27 69.368 27ZM69.656 10.08C70.04 10.08 70.352 10.24 70.592 10.56C70.848 10.864 70.976 11.176 70.976 11.496C70.976 11.832 70.832 12.144 70.544 12.432L60.488 22.056L60.368 18.624L68.48 10.632C68.848 10.264 69.24 10.08 69.656 10.08ZM59.288 27C58.84 27 58.48 26.864 58.208 26.592C57.936 26.304 57.8 25.952 57.8 25.536V11.664C57.8 11.248 57.944 10.904 58.232 10.632C58.52 10.344 58.888 10.2 59.336 10.2C59.784 10.2 60.136 10.344 60.392 10.632C60.664 10.904 60.8 11.248 60.8 11.664V25.536C60.8 25.952 60.664 26.304 60.392 26.592C60.12 26.864 59.752 27 59.288 27ZM78.8189 27.24C77.4589 27.24 76.2749 26.96 75.2669 26.4C74.2749 25.824 73.5069 25.048 72.9629 24.072C72.4349 23.096 72.1709 21.992 72.1709 20.76C72.1709 19.32 72.4589 18.096 73.0349 17.088C73.6269 16.064 74.3949 15.28 75.3389 14.736C76.2829 14.192 77.2829 13.92 78.3389 13.92C79.1549 13.92 79.9229 14.088 80.6429 14.424C81.3789 14.76 82.0269 15.224 82.5869 15.816C83.1469 16.392 83.5869 17.064 83.9069 17.832C84.2429 18.6 84.4109 19.416 84.4109 20.28C84.3949 20.664 84.2429 20.976 83.9549 21.216C83.6669 21.456 83.3309 21.576 82.9469 21.576H73.7789L73.0589 19.176H81.8669L81.3389 19.656V19.008C81.3069 18.544 81.1389 18.128 80.8349 17.76C80.5469 17.392 80.1789 17.104 79.7309 16.896C79.2989 16.672 78.8349 16.56 78.3389 16.56C77.8589 16.56 77.4109 16.624 76.9949 16.752C76.5789 16.88 76.2189 17.096 75.9149 17.4C75.6109 17.704 75.3709 18.112 75.1949 18.624C75.0189 19.136 74.9309 19.784 74.9309 20.568C74.9309 21.432 75.1069 22.168 75.4589 22.776C75.8269 23.368 76.2909 23.824 76.8509 24.144C77.4269 24.448 78.0349 24.6 78.6749 24.6C79.2669 24.6 79.7389 24.552 80.0909 24.456C80.4429 24.36 80.7229 24.248 80.9309 24.12C81.1549 23.976 81.3549 23.856 81.5309 23.76C81.8189 23.616 82.0909 23.544 82.3469 23.544C82.6989 23.544 82.9869 23.664 83.2109 23.904C83.4509 24.144 83.5709 24.424 83.5709 24.744C83.5709 25.176 83.3469 25.568 82.8989 25.92C82.4829 26.272 81.8989 26.584 81.1469 26.856C80.3949 27.112 79.6189 27.24 78.8189 27.24ZM96.338 14.16C96.754 14.16 97.098 14.304 97.37 14.592C97.642 14.864 97.778 15.208 97.778 15.624V25.824C97.778 27.296 97.498 28.464 96.938 29.328C96.394 30.208 95.658 30.84 94.73 31.224C93.802 31.608 92.762 31.8 91.61 31.8C91.098 31.8 90.554 31.76 89.978 31.68C89.402 31.6 88.93 31.48 88.562 31.32C88.082 31.112 87.746 30.848 87.554 30.528C87.378 30.224 87.346 29.896 87.458 29.544C87.602 29.08 87.834 28.76 88.154 28.584C88.474 28.424 88.81 28.408 89.162 28.536C89.418 28.616 89.754 28.736 90.17 28.896C90.586 29.072 91.066 29.16 91.61 29.16C92.346 29.16 92.954 29.056 93.434 28.848C93.93 28.656 94.298 28.32 94.538 27.84C94.794 27.376 94.922 26.736 94.922 25.92V24.312L95.426 24.888C95.154 25.416 94.81 25.856 94.394 26.208C93.994 26.544 93.514 26.8 92.954 26.976C92.394 27.152 91.754 27.24 91.034 27.24C90.186 27.24 89.442 27.048 88.802 26.664C88.178 26.264 87.69 25.72 87.338 25.032C86.986 24.328 86.81 23.528 86.81 22.632V15.624C86.81 15.208 86.946 14.864 87.218 14.592C87.49 14.304 87.834 14.16 88.25 14.16C88.666 14.16 89.01 14.304 89.282 14.592C89.554 14.864 89.69 15.208 89.69 15.624V21.768C89.69 22.808 89.914 23.544 90.362 23.976C90.826 24.392 91.466 24.6 92.282 24.6C92.842 24.6 93.314 24.496 93.698 24.288C94.082 24.064 94.378 23.744 94.586 23.328C94.794 22.896 94.898 22.376 94.898 21.768V15.624C94.898 15.208 95.034 14.864 95.306 14.592C95.578 14.304 95.922 14.16 96.338 14.16ZM107.544 13.92C108.664 13.92 109.664 14.208 110.544 14.784C111.44 15.344 112.144 16.12 112.656 17.112C113.184 18.104 113.448 19.256 113.448 20.568C113.448 21.88 113.184 23.04 112.656 24.048C112.144 25.04 111.448 25.824 110.568 26.4C109.704 26.96 108.728 27.24 107.64 27.24C107 27.24 106.4 27.136 105.84 26.928C105.28 26.72 104.784 26.456 104.352 26.136C103.936 25.816 103.608 25.496 103.368 25.176C103.144 24.84 103.032 24.56 103.032 24.336L103.776 24.024V25.776C103.776 26.192 103.64 26.544 103.368 26.832C103.096 27.104 102.752 27.24 102.336 27.24C101.92 27.24 101.576 27.104 101.304 26.832C101.032 26.56 100.896 26.208 100.896 25.776V10.704C100.896 10.288 101.032 9.944 101.304 9.672C101.576 9.384 101.92 9.24 102.336 9.24C102.752 9.24 103.096 9.384 103.368 9.672C103.64 9.944 103.776 10.288 103.776 10.704V16.8L103.368 16.584C103.368 16.376 103.48 16.128 103.704 15.84C103.928 15.536 104.232 15.24 104.616 14.952C105 14.648 105.44 14.4 105.936 14.208C106.448 14.016 106.984 13.92 107.544 13.92ZM107.184 16.56C106.48 16.56 105.864 16.736 105.336 17.088C104.808 17.44 104.392 17.92 104.088 18.528C103.8 19.12 103.656 19.8 103.656 20.568C103.656 21.32 103.8 22.008 104.088 22.632C104.392 23.24 104.808 23.72 105.336 24.072C105.864 24.424 106.48 24.6 107.184 24.6C107.888 24.6 108.496 24.424 109.008 24.072C109.536 23.72 109.944 23.24 110.232 22.632C110.536 22.008 110.688 21.32 110.688 20.568C110.688 19.8 110.536 19.12 110.232 18.528C109.944 17.92 109.536 17.44 109.008 17.088C108.496 16.736 107.888 16.56 107.184 16.56ZM128.422 20.592C128.422 21.904 128.126 23.064 127.534 24.072C126.958 25.064 126.174 25.84 125.182 26.4C124.206 26.96 123.11 27.24 121.894 27.24C120.678 27.24 119.574 26.96 118.582 26.4C117.606 25.84 116.822 25.064 116.23 24.072C115.654 23.064 115.366 21.904 115.366 20.592C115.366 19.28 115.654 18.128 116.23 17.136C116.822 16.128 117.606 15.344 118.582 14.784C119.574 14.208 120.678 13.92 121.894 13.92C123.11 13.92 124.206 14.208 125.182 14.784C126.174 15.344 126.958 16.128 127.534 17.136C128.126 18.128 128.422 19.28 128.422 20.592ZM125.542 20.592C125.542 19.776 125.374 19.072 125.038 18.48C124.718 17.872 124.278 17.4 123.718 17.064C123.174 16.728 122.566 16.56 121.894 16.56C121.222 16.56 120.606 16.728 120.046 17.064C119.502 17.4 119.062 17.872 118.726 18.48C118.406 19.072 118.246 19.776 118.246 20.592C118.246 21.392 118.406 22.096 118.726 22.704C119.062 23.296 119.502 23.76 120.046 24.096C120.606 24.432 121.222 24.6 121.894 24.6C122.566 24.6 123.174 24.432 123.718 24.096C124.278 23.76 124.718 23.296 125.038 22.704C125.374 22.096 125.542 21.392 125.542 20.592ZM141.455 13.92C141.871 13.92 142.215 14.056 142.487 14.328C142.759 14.6 142.895 14.952 142.895 15.384V25.536C142.895 25.952 142.759 26.304 142.487 26.592C142.215 26.864 141.871 27 141.455 27C141.039 27 140.695 26.864 140.423 26.592C140.151 26.304 140.015 25.952 140.015 25.536V24.36L140.543 24.576C140.543 24.784 140.431 25.04 140.207 25.344C139.983 25.632 139.679 25.92 139.295 26.208C138.911 26.496 138.455 26.744 137.927 26.952C137.415 27.144 136.855 27.24 136.247 27.24C135.143 27.24 134.143 26.96 133.247 26.4C132.351 25.824 131.639 25.04 131.111 24.048C130.599 23.04 130.343 21.888 130.343 20.592C130.343 19.28 130.599 18.128 131.111 17.136C131.639 16.128 132.343 15.344 133.223 14.784C134.103 14.208 135.079 13.92 136.151 13.92C136.839 13.92 137.471 14.024 138.047 14.232C138.623 14.44 139.119 14.704 139.535 15.024C139.967 15.344 140.295 15.672 140.519 16.008C140.759 16.328 140.879 16.6 140.879 16.824L140.015 17.136V15.384C140.015 14.968 140.151 14.624 140.423 14.352C140.695 14.064 141.039 13.92 141.455 13.92ZM136.607 24.6C137.311 24.6 137.927 24.424 138.455 24.072C138.983 23.72 139.391 23.24 139.679 22.632C139.983 22.024 140.135 21.344 140.135 20.592C140.135 19.824 139.983 19.136 139.679 18.528C139.391 17.92 138.983 17.44 138.455 17.088C137.927 16.736 137.311 16.56 136.607 16.56C135.919 16.56 135.311 16.736 134.783 17.088C134.255 17.44 133.839 17.92 133.535 18.528C133.247 19.136 133.103 19.824 133.103 20.592C133.103 21.344 133.247 22.024 133.535 22.632C133.839 23.24 134.255 23.72 134.783 24.072C135.311 24.424 135.919 24.6 136.607 24.6ZM147.453 27C147.037 27 146.693 26.864 146.421 26.592C146.149 26.304 146.013 25.952 146.013 25.536V15.624C146.013 15.208 146.149 14.864 146.421 14.592C146.693 14.304 147.037 14.16 147.453 14.16C147.869 14.16 148.213 14.304 148.485 14.592C148.757 14.864 148.893 15.208 148.893 15.624V17.88L148.725 16.272C148.901 15.888 149.125 15.552 149.397 15.264C149.685 14.96 150.005 14.712 150.357 14.52C150.709 14.312 151.085 14.16 151.485 14.064C151.885 13.968 152.285 13.92 152.685 13.92C153.165 13.92 153.565 14.056 153.885 14.328C154.221 14.6 154.389 14.92 154.389 15.288C154.389 15.816 154.253 16.2 153.981 16.44C153.709 16.664 153.413 16.776 153.093 16.776C152.789 16.776 152.509 16.72 152.253 16.608C152.013 16.496 151.733 16.44 151.413 16.44C151.125 16.44 150.829 16.512 150.525 16.656C150.237 16.784 149.965 16.992 149.709 17.28C149.469 17.568 149.269 17.928 149.109 18.36C148.965 18.776 148.893 19.272 148.893 19.848V25.536C148.893 25.952 148.757 26.304 148.485 26.592C148.213 26.864 147.869 27 147.453 27ZM166.392 9.24C166.808 9.24 167.152 9.376 167.424 9.648C167.696 9.92 167.832 10.272 167.832 10.704V25.536C167.832 25.952 167.696 26.304 167.424 26.592C167.152 26.864 166.808 27 166.392 27C165.976 27 165.632 26.864 165.36 26.592C165.088 26.304 164.952 25.952 164.952 25.536V24.36L165.48 24.576C165.48 24.784 165.368 25.04 165.144 25.344C164.92 25.632 164.616 25.92 164.232 26.208C163.848 26.496 163.392 26.744 162.864 26.952C162.352 27.144 161.792 27.24 161.184 27.24C160.08 27.24 159.08 26.96 158.184 26.4C157.288 25.824 156.576 25.04 156.048 24.048C155.536 23.04 155.28 21.888 155.28 20.592C155.28 19.28 155.536 18.128 156.048 17.136C156.576 16.128 157.28 15.344 158.16 14.784C159.04 14.208 160.016 13.92 161.088 13.92C161.776 13.92 162.408 14.024 162.984 14.232C163.56 14.44 164.056 14.704 164.472 15.024C164.904 15.344 165.232 15.672 165.456 16.008C165.696 16.328 165.816 16.6 165.816 16.824L164.952 17.136V10.704C164.952 10.288 165.088 9.944 165.36 9.672C165.632 9.384 165.976 9.24 166.392 9.24ZM161.544 24.6C162.248 24.6 162.864 24.424 163.392 24.072C163.92 23.72 164.328 23.24 164.616 22.632C164.92 22.024 165.072 21.344 165.072 20.592C165.072 19.824 164.92 19.136 164.616 18.528C164.328 17.92 163.92 17.44 163.392 17.088C162.864 16.736 162.248 16.56 161.544 16.56C160.856 16.56 160.248 16.736 159.72 17.088C159.192 17.44 158.776 17.92 158.472 18.528C158.184 19.136 158.04 19.824 158.04 20.592C158.04 21.344 158.184 22.024 158.472 22.632C158.776 23.24 159.192 23.72 159.72 24.072C160.248 24.424 160.856 24.6 161.544 24.6Z" fill="#8A8A8A"/>
<path d="M6 10C6 7.34784 7.05357 4.8043 8.92893 2.92893C10.8043 1.05357 13.3478 0 16 0C18.6522 0 21.1957 1.05357 23.0711 2.92893C24.9464 4.8043 26 7.34784 26 10V22C26 24.6522 24.9464 27.1957 23.0711 29.0711C21.1957 30.9464 18.6522 32 16 32C13.3478 32 10.8043 30.9464 8.92893 29.0711C7.05357 27.1957 6 24.6522 6 22V10ZM17 7C17 6.73478 16.8946 6.48043 16.7071 6.29289C16.5196 6.10536 16.2652 6 16 6C15.7348 6 15.4804 6.10536 15.2929 6.29289C15.1054 6.48043 15 6.73478 15 7V11C15 11.2652 15.1054 11.5196 15.2929 11.7071C15.4804 11.8946 15.7348 12 16 12C16.2652 12 16.5196 11.8946 16.7071 11.7071C16.8946 11.5196 17 11.2652 17 11V7Z" fill="#8A8A8A"/>
</svg>
