<svg width="227" height="34" viewBox="0 0 227 34" fill="none" xmlns="http://www.w3.org/2000/svg">
<path d="M59.312 11.176C59.536 11.176 59.768 11.24 60.008 11.368C60.264 11.48 60.456 11.632 60.584 11.824L66.416 20.8L65.216 20.752L71.192 11.824C71.496 11.392 71.888 11.176 72.368 11.176C72.752 11.176 73.096 11.312 73.4 11.584C73.704 11.856 73.856 12.208 73.856 12.64V26.536C73.856 26.952 73.72 27.304 73.448 27.592C73.176 27.864 72.816 28 72.368 28C71.92 28 71.552 27.864 71.264 27.592C70.992 27.304 70.856 26.952 70.856 26.536V15.232L71.792 15.448L66.896 22.912C66.752 23.088 66.568 23.24 66.344 23.368C66.136 23.496 65.92 23.552 65.696 23.536C65.488 23.552 65.272 23.496 65.048 23.368C64.84 23.24 64.664 23.088 64.52 22.912L59.936 15.664L60.56 14.392V26.536C60.56 26.952 60.432 27.304 60.176 27.592C59.92 27.864 59.584 28 59.168 28C58.768 28 58.44 27.864 58.184 27.592C57.928 27.304 57.8 26.952 57.8 26.536V12.64C57.8 12.24 57.944 11.896 58.232 11.608C58.536 11.32 58.896 11.176 59.312 11.176ZM89.6801 21.592C89.6801 22.904 89.3841 24.064 88.7921 25.072C88.2161 26.064 87.4321 26.84 86.4401 27.4C85.4641 27.96 84.3681 28.24 83.1521 28.24C81.9361 28.24 80.8321 27.96 79.8401 27.4C78.8641 26.84 78.0801 26.064 77.4881 25.072C76.9121 24.064 76.6241 22.904 76.6241 21.592C76.6241 20.28 76.9121 19.128 77.4881 18.136C78.0801 17.128 78.8641 16.344 79.8401 15.784C80.8321 15.208 81.9361 14.92 83.1521 14.92C84.3681 14.92 85.4641 15.208 86.4401 15.784C87.4321 16.344 88.2161 17.128 88.7921 18.136C89.3841 19.128 89.6801 20.28 89.6801 21.592ZM86.8001 21.592C86.8001 20.776 86.6321 20.072 86.2961 19.48C85.9761 18.872 85.5361 18.4 84.9761 18.064C84.4321 17.728 83.8241 17.56 83.1521 17.56C82.4801 17.56 81.8641 17.728 81.3041 18.064C80.7601 18.4 80.3201 18.872 79.9841 19.48C79.6641 20.072 79.5041 20.776 79.5041 21.592C79.5041 22.392 79.6641 23.096 79.9841 23.704C80.3201 24.296 80.7601 24.76 81.3041 25.096C81.8641 25.432 82.4801 25.6 83.1521 25.6C83.8241 25.6 84.4321 25.432 84.9761 25.096C85.5361 24.76 85.9761 24.296 86.2961 23.704C86.6321 23.096 86.8001 22.392 86.8001 21.592ZM101.729 15.16C102.145 15.16 102.489 15.304 102.761 15.592C103.033 15.864 103.169 16.208 103.169 16.624V22.72C103.169 24.416 102.697 25.76 101.753 26.752C100.809 27.744 99.4486 28.24 97.6726 28.24C95.8966 28.24 94.5366 27.744 93.5926 26.752C92.6646 25.76 92.2006 24.416 92.2006 22.72V16.624C92.2006 16.208 92.3366 15.864 92.6086 15.592C92.8806 15.304 93.2246 15.16 93.6406 15.16C94.0566 15.16 94.4006 15.304 94.6726 15.592C94.9446 15.864 95.0806 16.208 95.0806 16.624V22.72C95.0806 23.696 95.2966 24.424 95.7286 24.904C96.1606 25.368 96.8086 25.6 97.6726 25.6C98.5526 25.6 99.2086 25.368 99.6406 24.904C100.073 24.424 100.289 23.696 100.289 22.72V16.624C100.289 16.208 100.425 15.864 100.697 15.592C100.969 15.304 101.313 15.16 101.729 15.16ZM105.543 26.008C105.383 25.784 105.311 25.496 105.327 25.144C105.343 24.792 105.551 24.488 105.951 24.232C106.207 24.072 106.479 24.008 106.767 24.04C107.055 24.056 107.335 24.2 107.607 24.472C108.071 24.936 108.559 25.296 109.071 25.552C109.583 25.808 110.223 25.936 110.991 25.936C111.231 25.92 111.495 25.888 111.783 25.84C112.071 25.776 112.319 25.648 112.527 25.456C112.751 25.248 112.863 24.936 112.863 24.52C112.863 24.168 112.743 23.888 112.503 23.68C112.263 23.472 111.943 23.296 111.543 23.152C111.159 23.008 110.727 22.872 110.247 22.744C109.751 22.6 109.239 22.44 108.711 22.264C108.199 22.088 107.727 21.864 107.295 21.592C106.863 21.304 106.511 20.928 106.239 20.464C105.967 20 105.831 19.416 105.831 18.712C105.831 17.912 106.055 17.232 106.503 16.672C106.951 16.112 107.527 15.68 108.231 15.376C108.951 15.072 109.703 14.92 110.487 14.92C110.983 14.92 111.503 14.984 112.047 15.112C112.591 15.224 113.111 15.416 113.607 15.688C114.103 15.944 114.519 16.288 114.855 16.72C115.031 16.96 115.135 17.248 115.167 17.584C115.199 17.92 115.047 18.224 114.711 18.496C114.471 18.688 114.191 18.776 113.871 18.76C113.551 18.728 113.287 18.616 113.079 18.424C112.807 18.072 112.439 17.792 111.975 17.584C111.527 17.376 111.007 17.272 110.415 17.272C110.175 17.272 109.911 17.304 109.623 17.368C109.351 17.416 109.111 17.536 108.903 17.728C108.695 17.904 108.591 18.192 108.591 18.592C108.591 18.96 108.711 19.256 108.951 19.48C109.191 19.688 109.511 19.864 109.911 20.008C110.327 20.136 110.767 20.264 111.231 20.392C111.711 20.52 112.199 20.672 112.695 20.848C113.191 21.024 113.647 21.256 114.063 21.544C114.479 21.832 114.815 22.208 115.071 22.672C115.327 23.12 115.455 23.696 115.455 24.4C115.455 25.216 115.215 25.912 114.735 26.488C114.255 27.064 113.655 27.504 112.935 27.808C112.215 28.096 111.479 28.24 110.727 28.24C109.783 28.24 108.839 28.08 107.895 27.76C106.951 27.424 106.167 26.84 105.543 26.008ZM123.913 28.24C122.553 28.24 121.369 27.96 120.361 27.4C119.369 26.824 118.601 26.048 118.057 25.072C117.529 24.096 117.265 22.992 117.265 21.76C117.265 20.32 117.553 19.096 118.129 18.088C118.721 17.064 119.489 16.28 120.433 15.736C121.377 15.192 122.377 14.92 123.433 14.92C124.249 14.92 125.017 15.088 125.737 15.424C126.473 15.76 127.121 16.224 127.681 16.816C128.241 17.392 128.681 18.064 129.001 18.832C129.337 19.6 129.505 20.416 129.505 21.28C129.489 21.664 129.337 21.976 129.049 22.216C128.761 22.456 128.425 22.576 128.041 22.576H118.873L118.153 20.176H126.961L126.433 20.656V20.008C126.401 19.544 126.233 19.128 125.929 18.76C125.641 18.392 125.273 18.104 124.825 17.896C124.393 17.672 123.929 17.56 123.433 17.56C122.953 17.56 122.505 17.624 122.089 17.752C121.673 17.88 121.313 18.096 121.009 18.4C120.705 18.704 120.465 19.112 120.289 19.624C120.113 20.136 120.025 20.784 120.025 21.568C120.025 22.432 120.201 23.168 120.553 23.776C120.921 24.368 121.385 24.824 121.945 25.144C122.521 25.448 123.129 25.6 123.769 25.6C124.361 25.6 124.833 25.552 125.185 25.456C125.537 25.36 125.817 25.248 126.025 25.12C126.249 24.976 126.449 24.856 126.625 24.76C126.913 24.616 127.185 24.544 127.441 24.544C127.793 24.544 128.081 24.664 128.305 24.904C128.545 25.144 128.665 25.424 128.665 25.744C128.665 26.176 128.441 26.568 127.993 26.92C127.577 27.272 126.993 27.584 126.241 27.856C125.489 28.112 124.713 28.24 123.913 28.24ZM146.908 28.24C145.692 28.24 144.556 28.016 143.5 27.568C142.444 27.12 141.516 26.504 140.715 25.72C139.916 24.92 139.284 24 138.82 22.96C138.372 21.92 138.148 20.8 138.148 19.6C138.148 18.4 138.372 17.28 138.82 16.24C139.284 15.2 139.916 14.288 140.715 13.504C141.516 12.704 142.444 12.08 143.5 11.632C144.556 11.184 145.692 10.96 146.908 10.96C147.66 10.96 148.388 11.04 149.092 11.2C149.796 11.36 150.444 11.6 151.036 11.92C151.276 12.048 151.452 12.224 151.564 12.448C151.692 12.656 151.756 12.872 151.756 13.096C151.756 13.48 151.628 13.824 151.372 14.128C151.116 14.432 150.788 14.584 150.388 14.584C150.26 14.584 150.124 14.568 149.98 14.536C149.852 14.504 149.724 14.456 149.596 14.392C149.196 14.216 148.772 14.08 148.324 13.984C147.876 13.888 147.404 13.84 146.908 13.84C145.868 13.84 144.916 14.104 144.052 14.632C143.204 15.144 142.524 15.84 142.012 16.72C141.516 17.584 141.268 18.544 141.268 19.6C141.268 20.64 141.516 21.6 142.012 22.48C142.524 23.36 143.204 24.064 144.052 24.592C144.916 25.104 145.868 25.36 146.908 25.36C147.388 25.36 147.916 25.312 148.492 25.216C149.068 25.12 149.54 24.992 149.908 24.832L149.692 25.552V21.448L150.1 21.808H147.436C147.02 21.808 146.668 21.672 146.38 21.4C146.108 21.128 145.972 20.784 145.972 20.368C145.972 19.952 146.108 19.608 146.38 19.336C146.668 19.064 147.02 18.928 147.436 18.928H151.372C151.788 18.928 152.132 19.072 152.404 19.36C152.676 19.632 152.812 19.976 152.812 20.392V25.48C152.812 25.8 152.732 26.064 152.572 26.272C152.428 26.48 152.26 26.648 152.068 26.776C151.332 27.224 150.524 27.584 149.644 27.856C148.78 28.112 147.868 28.24 146.908 28.24ZM166.299 14.92C166.715 14.92 167.059 15.056 167.331 15.328C167.603 15.6 167.739 15.952 167.739 16.384V26.536C167.739 26.952 167.603 27.304 167.331 27.592C167.059 27.864 166.715 28 166.299 28C165.883 28 165.539 27.864 165.267 27.592C164.995 27.304 164.859 26.952 164.859 26.536V25.36L165.387 25.576C165.387 25.784 165.275 26.04 165.051 26.344C164.827 26.632 164.523 26.92 164.139 27.208C163.755 27.496 163.299 27.744 162.771 27.952C162.259 28.144 161.699 28.24 161.091 28.24C159.987 28.24 158.987 27.96 158.091 27.4C157.195 26.824 156.483 26.04 155.955 25.048C155.443 24.04 155.187 22.888 155.187 21.592C155.187 20.28 155.443 19.128 155.955 18.136C156.483 17.128 157.187 16.344 158.067 15.784C158.947 15.208 159.923 14.92 160.995 14.92C161.683 14.92 162.315 15.024 162.891 15.232C163.467 15.44 163.963 15.704 164.379 16.024C164.811 16.344 165.139 16.672 165.363 17.008C165.603 17.328 165.723 17.6 165.723 17.824L164.859 18.136V16.384C164.859 15.968 164.995 15.624 165.267 15.352C165.539 15.064 165.883 14.92 166.299 14.92ZM161.451 25.6C162.155 25.6 162.771 25.424 163.299 25.072C163.827 24.72 164.235 24.24 164.523 23.632C164.827 23.024 164.979 22.344 164.979 21.592C164.979 20.824 164.827 20.136 164.523 19.528C164.235 18.92 163.827 18.44 163.299 18.088C162.771 17.736 162.155 17.56 161.451 17.56C160.763 17.56 160.155 17.736 159.627 18.088C159.099 18.44 158.683 18.92 158.379 19.528C158.091 20.136 157.947 20.824 157.947 21.592C157.947 22.344 158.091 23.024 158.379 23.632C158.683 24.24 159.099 24.72 159.627 25.072C160.155 25.424 160.763 25.6 161.451 25.6ZM177.601 14.92C178.881 14.92 179.825 15.232 180.433 15.856C181.041 16.464 181.441 17.256 181.633 18.232L181.225 18.016L181.417 17.632C181.609 17.264 181.905 16.872 182.305 16.456C182.705 16.024 183.185 15.664 183.745 15.376C184.321 15.072 184.961 14.92 185.665 14.92C186.817 14.92 187.689 15.168 188.281 15.664C188.889 16.16 189.305 16.824 189.529 17.656C189.753 18.472 189.865 19.384 189.865 20.392V26.536C189.865 26.952 189.729 27.304 189.457 27.592C189.185 27.864 188.841 28 188.425 28C188.009 28 187.665 27.864 187.393 27.592C187.121 27.304 186.985 26.952 186.985 26.536V20.392C186.985 19.864 186.921 19.392 186.793 18.976C186.665 18.544 186.433 18.2 186.097 17.944C185.761 17.688 185.281 17.56 184.657 17.56C184.049 17.56 183.529 17.688 183.097 17.944C182.665 18.2 182.337 18.544 182.113 18.976C181.905 19.392 181.801 19.864 181.801 20.392V26.536C181.801 26.952 181.665 27.304 181.393 27.592C181.121 27.864 180.777 28 180.361 28C179.945 28 179.601 27.864 179.329 27.592C179.057 27.304 178.921 26.952 178.921 26.536V20.392C178.921 19.864 178.857 19.392 178.729 18.976C178.601 18.544 178.369 18.2 178.033 17.944C177.697 17.688 177.217 17.56 176.593 17.56C175.985 17.56 175.465 17.688 175.033 17.944C174.601 18.2 174.273 18.544 174.049 18.976C173.841 19.392 173.737 19.864 173.737 20.392V26.536C173.737 26.952 173.601 27.304 173.329 27.592C173.057 27.864 172.713 28 172.297 28C171.881 28 171.537 27.864 171.265 27.592C170.993 27.304 170.857 26.952 170.857 26.536V16.624C170.857 16.208 170.993 15.864 171.265 15.592C171.537 15.304 171.881 15.16 172.297 15.16C172.713 15.16 173.057 15.304 173.329 15.592C173.601 15.864 173.737 16.208 173.737 16.624V17.656L173.377 17.584C173.521 17.312 173.721 17.024 173.977 16.72C174.233 16.4 174.545 16.104 174.913 15.832C175.281 15.56 175.689 15.344 176.137 15.184C176.585 15.008 177.073 14.92 177.601 14.92ZM195.694 26.536C195.694 26.952 195.558 27.304 195.286 27.592C195.014 27.864 194.67 28 194.254 28C193.838 28 193.494 27.864 193.222 27.592C192.95 27.304 192.814 26.952 192.814 26.536V16.624C192.814 16.208 192.95 15.864 193.222 15.592C193.494 15.304 193.838 15.16 194.254 15.16C194.67 15.16 195.014 15.304 195.286 15.592C195.558 15.864 195.694 16.208 195.694 16.624V26.536ZM194.23 13.6C193.686 13.6 193.302 13.512 193.078 13.336C192.854 13.16 192.742 12.848 192.742 12.4V11.944C192.742 11.48 192.862 11.168 193.102 11.008C193.358 10.832 193.742 10.744 194.254 10.744C194.814 10.744 195.206 10.832 195.43 11.008C195.654 11.184 195.766 11.496 195.766 11.944V12.4C195.766 12.864 195.646 13.184 195.406 13.36C195.166 13.52 194.774 13.6 194.23 13.6ZM205.518 14.92C206.702 14.92 207.598 15.168 208.206 15.664C208.83 16.16 209.254 16.824 209.478 17.656C209.718 18.472 209.838 19.384 209.838 20.392V26.536C209.838 26.952 209.702 27.304 209.43 27.592C209.158 27.864 208.814 28 208.398 28C207.982 28 207.638 27.864 207.366 27.592C207.094 27.304 206.958 26.952 206.958 26.536V20.392C206.958 19.864 206.886 19.392 206.742 18.976C206.614 18.544 206.374 18.2 206.022 17.944C205.67 17.688 205.166 17.56 204.51 17.56C203.87 17.56 203.326 17.688 202.878 17.944C202.446 18.2 202.11 18.544 201.87 18.976C201.646 19.392 201.534 19.864 201.534 20.392V26.536C201.534 26.952 201.398 27.304 201.126 27.592C200.854 27.864 200.51 28 200.094 28C199.678 28 199.334 27.864 199.062 27.592C198.79 27.304 198.654 26.952 198.654 26.536V16.624C198.654 16.208 198.79 15.864 199.062 15.592C199.334 15.304 199.678 15.16 200.094 15.16C200.51 15.16 200.854 15.304 201.126 15.592C201.398 15.864 201.534 16.208 201.534 16.624V17.656L201.174 17.584C201.318 17.312 201.526 17.024 201.798 16.72C202.07 16.4 202.39 16.104 202.758 15.832C203.126 15.56 203.542 15.344 204.006 15.184C204.47 15.008 204.974 14.92 205.518 14.92ZM218.279 14.92C218.951 14.92 219.567 15.024 220.127 15.232C220.687 15.44 221.167 15.704 221.567 16.024C221.983 16.344 222.303 16.672 222.527 17.008C222.767 17.328 222.887 17.6 222.887 17.824L222.263 18.136V16.384C222.263 15.968 222.399 15.624 222.671 15.352C222.943 15.064 223.287 14.92 223.703 14.92C224.119 14.92 224.463 15.056 224.735 15.328C225.007 15.6 225.143 15.952 225.143 16.384V27.064C225.143 28.456 224.839 29.568 224.231 30.4C223.639 31.248 222.855 31.856 221.879 32.224C220.903 32.608 219.855 32.8 218.735 32.8C218.415 32.8 217.999 32.76 217.487 32.68C216.975 32.6 216.487 32.504 216.023 32.392C215.559 32.28 215.207 32.176 214.967 32.08C214.487 31.872 214.151 31.608 213.959 31.288C213.783 30.984 213.751 30.656 213.863 30.304C214.007 29.84 214.239 29.52 214.559 29.344C214.879 29.184 215.215 29.168 215.567 29.296C215.727 29.344 215.991 29.44 216.359 29.584C216.727 29.728 217.127 29.856 217.559 29.968C218.007 30.096 218.399 30.16 218.735 30.16C219.935 30.16 220.823 29.92 221.399 29.44C221.975 28.96 222.263 28.296 222.263 27.448V25.36L222.551 25.576C222.551 25.784 222.439 26.04 222.215 26.344C222.007 26.632 221.711 26.92 221.327 27.208C220.959 27.496 220.519 27.744 220.007 27.952C219.495 28.144 218.951 28.24 218.375 28.24C217.239 28.24 216.215 27.96 215.303 27.4C214.391 26.824 213.671 26.04 213.143 25.048C212.615 24.04 212.351 22.888 212.351 21.592C212.351 20.28 212.615 19.128 213.143 18.136C213.671 17.128 214.383 16.344 215.279 15.784C216.175 15.208 217.175 14.92 218.279 14.92ZM218.735 17.56C218.015 17.56 217.383 17.736 216.839 18.088C216.295 18.44 215.871 18.92 215.567 19.528C215.263 20.136 215.111 20.824 215.111 21.592C215.111 22.344 215.263 23.024 215.567 23.632C215.871 24.24 216.295 24.72 216.839 25.072C217.383 25.424 218.015 25.6 218.735 25.6C219.471 25.6 220.111 25.424 220.655 25.072C221.199 24.72 221.623 24.24 221.927 23.632C222.231 23.024 222.383 22.344 222.383 21.592C222.383 20.824 222.231 20.136 221.927 19.528C221.623 18.92 221.199 18.44 220.655 18.088C220.111 17.736 219.471 17.56 218.735 17.56Z" fill="#8A8A8A"/>
<path d="M0 12C0 10.9391 0.421427 9.92172 1.17157 9.17157C1.92172 8.42143 2.93913 8 4 8H28C29.0609 8 30.0783 8.42143 30.8284 9.17157C31.5786 9.92172 32 10.9391 32 12V22C32 23.0609 31.5786 24.0783 30.8284 24.8284C30.0783 25.5786 29.0609 26 28 26H4C2.93913 26 1.92172 25.5786 1.17157 24.8284C0.421427 24.0783 0 23.0609 0 22V12ZM26 12.5V13.5C26 13.776 26.224 14 26.5 14H27.5C27.6326 14 27.7598 13.9473 27.8536 13.8536C27.9473 13.7598 28 13.6326 28 13.5V12.5C28 12.3674 27.9473 12.2402 27.8536 12.1464C27.7598 12.0527 27.6326 12 27.5 12H26.5C26.3674 12 26.2402 12.0527 26.1464 12.1464C26.0527 12.2402 26 12.3674 26 12.5ZM4.5 16C4.36739 16 4.24021 16.0527 4.14645 16.1464C4.05268 16.2402 4 16.3674 4 16.5V17.5C4 17.776 4.224 18 4.5 18H5.5C5.63261 18 5.75979 17.9473 5.85355 17.8536C5.94732 17.7598 6 17.6326 6 17.5V16.5C6 16.3674 5.94732 16.2402 5.85355 16.1464C5.75979 16.0527 5.63261 16 5.5 16H4.5ZM8 16.5V17.5C8 17.776 8.224 18 8.5 18H9.5C9.63261 18 9.75979 17.9473 9.85355 17.8536C9.94732 17.7598 10 17.6326 10 17.5V16.5C10 16.3674 9.94732 16.2402 9.85355 16.1464C9.75979 16.0527 9.63261 16 9.5 16H8.5C8.36739 16 8.24021 16.0527 8.14645 16.1464C8.05268 16.2402 8 16.3674 8 16.5ZM12.5 16C12.3674 16 12.2402 16.0527 12.1464 16.1464C12.0527 16.2402 12 16.3674 12 16.5V17.5C12 17.776 12.224 18 12.5 18H13.5C13.6326 18 13.7598 17.9473 13.8536 17.8536C13.9473 17.7598 14 17.6326 14 17.5V16.5C14 16.3674 13.9473 16.2402 13.8536 16.1464C13.7598 16.0527 13.6326 16 13.5 16H12.5ZM16 16.5V17.5C16 17.776 16.224 18 16.5 18H17.5C17.6326 18 17.7598 17.9473 17.8536 17.8536C17.9473 17.7598 18 17.6326 18 17.5V16.5C18 16.3674 17.9473 16.2402 17.8536 16.1464C17.7598 16.0527 17.6326 16 17.5 16H16.5C16.3674 16 16.2402 16.0527 16.1464 16.1464C16.0527 16.2402 16 16.3674 16 16.5ZM26.5 16C26.3674 16 26.2402 16.0527 26.1464 16.1464C26.0527 16.2402 26 16.3674 26 16.5V17.5C26 17.776 26.224 18 26.5 18H27.5C27.6326 18 27.7598 17.9473 27.8536 17.8536C27.9473 17.7598 28 17.6326 28 17.5V16.5C28 16.3674 27.9473 16.2402 27.8536 16.1464C27.7598 16.0527 27.6326 16 27.5 16H26.5ZM26.5 20C26.3674 20 26.2402 20.0527 26.1464 20.1464C26.0527 20.2402 26 20.3674 26 20.5V21.5C26 21.776 26.224 22 26.5 22H27.5C27.6326 22 27.7598 21.9473 27.8536 21.8536C27.9473 21.7598 28 21.6326 28 21.5V20.5C28 20.3674 27.9473 20.2402 27.8536 20.1464C27.7598 20.0527 27.6326 20 27.5 20H26.5ZM20.5 16C20.3674 16 20.2402 16.0527 20.1464 16.1464C20.0527 16.2402 20 16.3674 20 16.5V17.5C20 17.776 20.224 18 20.5 18H23.5C23.6326 18 23.7598 17.9473 23.8536 17.8536C23.9473 17.7598 24 17.6326 24 17.5V16.5C24 16.3674 23.9473 16.2402 23.8536 16.1464C23.7598 16.0527 23.6326 16 23.5 16H20.5ZM22 20.5V21.5C22 21.776 22.224 22 22.5 22H23.5C23.6326 22 23.7598 21.9473 23.8536 21.8536C23.9473 21.7598 24 21.6326 24 21.5V20.5C24 20.3674 23.9473 20.2402 23.8536 20.1464C23.7598 20.0527 23.6326 20 23.5 20H22.5C22.3674 20 22.2402 20.0527 22.1464 20.1464C22.0527 20.2402 22 20.3674 22 20.5ZM22.5 12C22.3674 12 22.2402 12.0527 22.1464 12.1464C22.0527 12.2402 22 12.3674 22 12.5V13.5C22 13.776 22.224 14 22.5 14H23.5C23.6326 14 23.7598 13.9473 23.8536 13.8536C23.9473 13.7598 24 13.6326 24 13.5V12.5C24 12.3674 23.9473 12.2402 23.8536 12.1464C23.7598 12.0527 23.6326 12 23.5 12H22.5ZM18 12.5V13.5C18 13.776 18.224 14 18.5 14H19.5C19.6326 14 19.7598 13.9473 19.8536 13.8536C19.9473 13.7598 20 13.6326 20 13.5V12.5C20 12.3674 19.9473 12.2402 19.8536 12.1464C19.7598 12.0527 19.6326 12 19.5 12H18.5C18.3674 12 18.2402 12.0527 18.1464 12.1464C18.0527 12.2402 18 12.3674 18 12.5ZM14.5 12C14.3674 12 14.2402 12.0527 14.1464 12.1464C14.0527 12.2402 14 12.3674 14 12.5V13.5C14 13.776 14.224 14 14.5 14H15.5C15.6326 14 15.7598 13.9473 15.8536 13.8536C15.9473 13.7598 16 13.6326 16 13.5V12.5C16 12.3674 15.9473 12.2402 15.8536 12.1464C15.7598 12.0527 15.6326 12 15.5 12H14.5ZM10 12.5V13.5C10 13.776 10.224 14 10.5 14H11.5C11.6326 14 11.7598 13.9473 11.8536 13.8536C11.9473 13.7598 12 13.6326 12 13.5V12.5C12 12.3674 11.9473 12.2402 11.8536 12.1464C11.7598 12.0527 11.6326 12 11.5 12H10.5C10.3674 12 10.2402 12.0527 10.1464 12.1464C10.0527 12.2402 10 12.3674 10 12.5ZM4.5 12C4.36739 12 4.24021 12.0527 4.14645 12.1464C4.05268 12.2402 4 12.3674 4 12.5V13.5C4 13.776 4.224 14 4.5 14H7.5C7.63261 14 7.75979 13.9473 7.85355 13.8536C7.94732 13.7598 8 13.6326 8 13.5V12.5C8 12.3674 7.94732 12.2402 7.85355 12.1464C7.75979 12.0527 7.63261 12 7.5 12H4.5ZM4 20.5V21.5C4 21.776 4.224 22 4.5 22H5.5C5.63261 22 5.75979 21.9473 5.85355 21.8536C5.94732 21.7598 6 21.6326 6 21.5V20.5C6 20.3674 5.94732 20.2402 5.85355 20.1464C5.75979 20.0527 5.63261 20 5.5 20H4.5C4.36739 20 4.24021 20.0527 4.14645 20.1464C4.05268 20.2402 4 20.3674 4 20.5ZM8.5 20C8.36739 20 8.24021 20.0527 8.14645 20.1464C8.05268 20.2402 8 20.3674 8 20.5V21.5C8 21.776 8.224 22 8.5 22H19.5C19.6326 22 19.7598 21.9473 19.8536 21.8536C19.9473 21.7598 20 21.6326 20 21.5V20.5C20 20.3674 19.9473 20.2402 19.8536 20.1464C19.7598 20.0527 19.6326 20 19.5 20H8.5Z" fill="#8A8A8A"/>
</svg>
