<svg width="139" height="32" viewBox="0 0 139 32" fill="none" xmlns="http://www.w3.org/2000/svg">
<path d="M65.2 26.24C64.08 26.24 63.072 26.104 62.176 25.832C61.28 25.544 60.424 25.048 59.608 24.344C59.4 24.168 59.24 23.968 59.128 23.744C59.016 23.52 58.96 23.296 58.96 23.072C58.96 22.704 59.088 22.384 59.344 22.112C59.616 21.824 59.952 21.68 60.352 21.68C60.656 21.68 60.928 21.776 61.168 21.968C61.776 22.464 62.376 22.84 62.968 23.096C63.576 23.352 64.32 23.48 65.2 23.48C65.792 23.48 66.336 23.392 66.832 23.216C67.328 23.024 67.728 22.776 68.032 22.472C68.336 22.152 68.488 21.792 68.488 21.392C68.488 20.912 68.344 20.504 68.056 20.168C67.768 19.832 67.328 19.552 66.736 19.328C66.144 19.088 65.392 18.904 64.48 18.776C63.616 18.648 62.856 18.456 62.2 18.2C61.544 17.928 60.992 17.592 60.544 17.192C60.112 16.776 59.784 16.296 59.56 15.752C59.336 15.192 59.224 14.568 59.224 13.88C59.224 12.84 59.488 11.952 60.016 11.216C60.56 10.48 61.288 9.92 62.2 9.536C63.112 9.152 64.12 8.96 65.224 8.96C66.264 8.96 67.224 9.12 68.104 9.44C69 9.744 69.728 10.136 70.288 10.616C70.752 10.984 70.984 11.408 70.984 11.888C70.984 12.24 70.848 12.56 70.576 12.848C70.304 13.136 69.984 13.28 69.616 13.28C69.376 13.28 69.16 13.208 68.968 13.064C68.712 12.84 68.368 12.632 67.936 12.44C67.504 12.232 67.048 12.064 66.568 11.936C66.088 11.792 65.64 11.72 65.224 11.72C64.536 11.72 63.952 11.808 63.472 11.984C63.008 12.16 62.656 12.4 62.416 12.704C62.176 13.008 62.056 13.36 62.056 13.76C62.056 14.24 62.192 14.64 62.464 14.96C62.752 15.264 63.16 15.512 63.688 15.704C64.216 15.88 64.848 16.04 65.584 16.184C66.544 16.36 67.384 16.568 68.104 16.808C68.84 17.048 69.448 17.36 69.928 17.744C70.408 18.112 70.768 18.584 71.008 19.16C71.248 19.72 71.368 20.408 71.368 21.224C71.368 22.264 71.08 23.16 70.504 23.912C69.928 24.664 69.168 25.24 68.224 25.64C67.296 26.04 66.288 26.24 65.2 26.24ZM79.9283 26.24C78.5683 26.24 77.3843 25.96 76.3763 25.4C75.3843 24.824 74.6163 24.048 74.0723 23.072C73.5443 22.096 73.2803 20.992 73.2803 19.76C73.2803 18.32 73.5683 17.096 74.1443 16.088C74.7363 15.064 75.5043 14.28 76.4483 13.736C77.3923 13.192 78.3923 12.92 79.4483 12.92C80.2643 12.92 81.0323 13.088 81.7523 13.424C82.4883 13.76 83.1363 14.224 83.6963 14.816C84.2563 15.392 84.6963 16.064 85.0163 16.832C85.3523 17.6 85.5203 18.416 85.5203 19.28C85.5043 19.664 85.3523 19.976 85.0643 20.216C84.7763 20.456 84.4403 20.576 84.0563 20.576H74.8883L74.1683 18.176H82.9763L82.4483 18.656V18.008C82.4163 17.544 82.2483 17.128 81.9443 16.76C81.6563 16.392 81.2883 16.104 80.8403 15.896C80.4083 15.672 79.9443 15.56 79.4483 15.56C78.9683 15.56 78.5203 15.624 78.1043 15.752C77.6883 15.88 77.3283 16.096 77.0243 16.4C76.7203 16.704 76.4803 17.112 76.3043 17.624C76.1283 18.136 76.0403 18.784 76.0403 19.568C76.0403 20.432 76.2163 21.168 76.5683 21.776C76.9363 22.368 77.4003 22.824 77.9603 23.144C78.5363 23.448 79.1443 23.6 79.7843 23.6C80.3763 23.6 80.8483 23.552 81.2003 23.456C81.5523 23.36 81.8323 23.248 82.0403 23.12C82.2643 22.976 82.4643 22.856 82.6403 22.76C82.9283 22.616 83.2003 22.544 83.4563 22.544C83.8083 22.544 84.0963 22.664 84.3203 22.904C84.5603 23.144 84.6803 23.424 84.6803 23.744C84.6803 24.176 84.4563 24.568 84.0083 24.92C83.5923 25.272 83.0083 25.584 82.2563 25.856C81.5043 26.112 80.7283 26.24 79.9283 26.24ZM98.6423 12.92C99.0583 12.92 99.4023 13.056 99.6743 13.328C99.9463 13.6 100.082 13.952 100.082 14.384V24.536C100.082 24.952 99.9463 25.304 99.6743 25.592C99.4023 25.864 99.0583 26 98.6423 26C98.2263 26 97.8823 25.864 97.6103 25.592C97.3383 25.304 97.2023 24.952 97.2023 24.536V23.36L97.7303 23.576C97.7303 23.784 97.6183 24.04 97.3943 24.344C97.1703 24.632 96.8663 24.92 96.4823 25.208C96.0983 25.496 95.6423 25.744 95.1143 25.952C94.6023 26.144 94.0423 26.24 93.4343 26.24C92.3303 26.24 91.3303 25.96 90.4343 25.4C89.5383 24.824 88.8263 24.04 88.2983 23.048C87.7863 22.04 87.5303 20.888 87.5303 19.592C87.5303 18.28 87.7863 17.128 88.2983 16.136C88.8263 15.128 89.5303 14.344 90.4103 13.784C91.2903 13.208 92.2663 12.92 93.3383 12.92C94.0263 12.92 94.6583 13.024 95.2343 13.232C95.8103 13.44 96.3063 13.704 96.7223 14.024C97.1543 14.344 97.4823 14.672 97.7063 15.008C97.9463 15.328 98.0663 15.6 98.0663 15.824L97.2023 16.136V14.384C97.2023 13.968 97.3383 13.624 97.6103 13.352C97.8823 13.064 98.2263 12.92 98.6423 12.92ZM93.7943 23.6C94.4983 23.6 95.1143 23.424 95.6423 23.072C96.1703 22.72 96.5783 22.24 96.8663 21.632C97.1703 21.024 97.3223 20.344 97.3223 19.592C97.3223 18.824 97.1703 18.136 96.8663 17.528C96.5783 16.92 96.1703 16.44 95.6423 16.088C95.1143 15.736 94.4983 15.56 93.7943 15.56C93.1063 15.56 92.4983 15.736 91.9703 16.088C91.4423 16.44 91.0263 16.92 90.7223 17.528C90.4343 18.136 90.2903 18.824 90.2903 19.592C90.2903 20.344 90.4343 21.024 90.7223 21.632C91.0263 22.24 91.4423 22.72 91.9703 23.072C92.4983 23.424 93.1063 23.6 93.7943 23.6ZM104.641 26C104.225 26 103.881 25.864 103.609 25.592C103.337 25.304 103.201 24.952 103.201 24.536V14.624C103.201 14.208 103.337 13.864 103.609 13.592C103.881 13.304 104.225 13.16 104.641 13.16C105.057 13.16 105.401 13.304 105.673 13.592C105.945 13.864 106.081 14.208 106.081 14.624V16.88L105.913 15.272C106.089 14.888 106.313 14.552 106.585 14.264C106.873 13.96 107.193 13.712 107.545 13.52C107.897 13.312 108.273 13.16 108.673 13.064C109.073 12.968 109.473 12.92 109.873 12.92C110.353 12.92 110.753 13.056 111.073 13.328C111.409 13.6 111.577 13.92 111.577 14.288C111.577 14.816 111.441 15.2 111.169 15.44C110.897 15.664 110.601 15.776 110.281 15.776C109.977 15.776 109.697 15.72 109.441 15.608C109.201 15.496 108.921 15.44 108.601 15.44C108.313 15.44 108.017 15.512 107.713 15.656C107.425 15.784 107.153 15.992 106.897 16.28C106.657 16.568 106.457 16.928 106.297 17.36C106.153 17.776 106.081 18.272 106.081 18.848V24.536C106.081 24.952 105.945 25.304 105.673 25.592C105.401 25.864 105.057 26 104.641 26ZM118.78 12.92C119.692 12.92 120.484 13.016 121.156 13.208C121.844 13.4 122.372 13.672 122.74 14.024C123.124 14.36 123.316 14.768 123.316 15.248C123.316 15.568 123.22 15.872 123.028 16.16C122.836 16.432 122.556 16.568 122.188 16.568C121.932 16.568 121.716 16.536 121.54 16.472C121.38 16.392 121.236 16.296 121.108 16.184C120.98 16.072 120.828 15.968 120.652 15.872C120.492 15.776 120.244 15.704 119.908 15.656C119.588 15.592 119.348 15.56 119.188 15.56C118.372 15.56 117.676 15.736 117.1 16.088C116.54 16.44 116.108 16.92 115.804 17.528C115.5 18.12 115.348 18.808 115.348 19.592C115.348 20.36 115.5 21.048 115.804 21.656C116.124 22.248 116.556 22.72 117.1 23.072C117.66 23.424 118.3 23.6 119.02 23.6C119.42 23.6 119.764 23.576 120.052 23.528C120.34 23.48 120.58 23.408 120.772 23.312C120.996 23.184 121.196 23.048 121.372 22.904C121.548 22.76 121.812 22.688 122.164 22.688C122.58 22.688 122.9 22.824 123.124 23.096C123.348 23.352 123.46 23.672 123.46 24.056C123.46 24.456 123.236 24.824 122.788 25.16C122.34 25.48 121.748 25.744 121.012 25.952C120.292 26.144 119.508 26.24 118.66 26.24C117.396 26.24 116.3 25.952 115.372 25.376C114.444 24.784 113.724 23.984 113.212 22.976C112.716 21.968 112.468 20.84 112.468 19.592C112.468 18.28 112.732 17.128 113.26 16.136C113.804 15.128 114.548 14.344 115.492 13.784C116.452 13.208 117.548 12.92 118.78 12.92ZM132.281 12.92C133.433 12.92 134.305 13.168 134.897 13.664C135.505 14.16 135.921 14.824 136.145 15.656C136.369 16.472 136.481 17.384 136.481 18.392V24.536C136.481 24.952 136.345 25.304 136.073 25.592C135.801 25.864 135.457 26 135.041 26C134.625 26 134.281 25.864 134.009 25.592C133.737 25.304 133.601 24.952 133.601 24.536V18.392C133.601 17.864 133.537 17.392 133.409 16.976C133.281 16.544 133.049 16.2 132.713 15.944C132.377 15.688 131.897 15.56 131.273 15.56C130.665 15.56 130.145 15.688 129.713 15.944C129.281 16.2 128.953 16.544 128.729 16.976C128.521 17.392 128.417 17.864 128.417 18.392V24.536C128.417 24.952 128.281 25.304 128.009 25.592C127.737 25.864 127.393 26 126.977 26C126.561 26 126.217 25.864 125.945 25.592C125.673 25.304 125.537 24.952 125.537 24.536V9.704C125.537 9.288 125.673 8.944 125.945 8.672C126.217 8.384 126.561 8.24 126.977 8.24C127.393 8.24 127.737 8.384 128.009 8.672C128.281 8.944 128.417 9.288 128.417 9.704V15.656L128.057 15.584C128.201 15.312 128.401 15.024 128.657 14.72C128.913 14.4 129.225 14.104 129.593 13.832C129.961 13.56 130.369 13.344 130.817 13.184C131.265 13.008 131.753 12.92 132.281 12.92Z" fill="white"/>
<g clip-path="url(#clip0_15_2)">
<path d="M13.3333 2.66667C7.45196 2.66667 2.66663 7.452 2.66663 13.3333C2.66663 19.2147 7.45196 24 13.3333 24C15.6999 23.9995 17.9984 23.2072 19.8626 21.7493L25.724 27.6107L27.6093 25.7253L21.748 19.864C23.2066 17.9996 23.9994 15.7006 24 13.3333C24 7.452 19.2146 2.66667 13.3333 2.66667Z" fill="#8A8A8A"/>
</g>
<defs>
<clipPath id="clip0_15_2">
<rect width="32" height="32" fill="white"/>
</clipPath>
</defs>
</svg>
