<svg width="134" height="32" viewBox="0 0 134 32" fill="none" xmlns="http://www.w3.org/2000/svg">
<path d="M66.736 9.2C67.568 9.2 68.344 9.44 69.064 9.92C69.8 10.4 70.392 11.048 70.84 11.864C71.288 12.68 71.512 13.592 71.512 14.6C71.512 15.592 71.288 16.496 70.84 17.312C70.392 18.128 69.8 18.784 69.064 19.28C68.344 19.76 67.568 20 66.736 20H62.32L62.56 19.568V24.536C62.56 24.952 62.432 25.304 62.176 25.592C61.92 25.864 61.584 26 61.168 26C60.768 26 60.44 25.864 60.184 25.592C59.928 25.304 59.8 24.952 59.8 24.536V10.664C59.8 10.248 59.936 9.904 60.208 9.632C60.496 9.344 60.848 9.2 61.264 9.2H66.736ZM66.736 17.264C67.04 17.264 67.336 17.136 67.624 16.88C67.912 16.624 68.152 16.296 68.344 15.896C68.536 15.48 68.632 15.048 68.632 14.6C68.632 14.136 68.536 13.704 68.344 13.304C68.152 12.904 67.912 12.584 67.624 12.344C67.336 12.088 67.04 11.96 66.736 11.96H62.272L62.56 11.528V17.648L62.296 17.264H66.736ZM75.4609 26C75.0449 26 74.7009 25.864 74.4289 25.592C74.1569 25.304 74.0209 24.952 74.0209 24.536V14.624C74.0209 14.208 74.1569 13.864 74.4289 13.592C74.7009 13.304 75.0449 13.16 75.4609 13.16C75.8769 13.16 76.2209 13.304 76.4929 13.592C76.7649 13.864 76.9009 14.208 76.9009 14.624V16.88L76.7329 15.272C76.9089 14.888 77.1329 14.552 77.4049 14.264C77.6929 13.96 78.0129 13.712 78.3649 13.52C78.7169 13.312 79.0929 13.16 79.4929 13.064C79.8929 12.968 80.2929 12.92 80.6929 12.92C81.1729 12.92 81.5729 13.056 81.8929 13.328C82.2289 13.6 82.3969 13.92 82.3969 14.288C82.3969 14.816 82.2609 15.2 81.9889 15.44C81.7169 15.664 81.4209 15.776 81.1009 15.776C80.7969 15.776 80.5169 15.72 80.2609 15.608C80.0209 15.496 79.7409 15.44 79.4209 15.44C79.1329 15.44 78.8369 15.512 78.5329 15.656C78.2449 15.784 77.9729 15.992 77.7169 16.28C77.4769 16.568 77.2769 16.928 77.1169 17.36C76.9729 17.776 76.9009 18.272 76.9009 18.848V24.536C76.9009 24.952 76.7649 25.304 76.4929 25.592C76.2209 25.864 75.8769 26 75.4609 26ZM96.3441 19.592C96.3441 20.904 96.0481 22.064 95.4561 23.072C94.8801 24.064 94.0961 24.84 93.1041 25.4C92.1281 25.96 91.0321 26.24 89.8161 26.24C88.6001 26.24 87.4961 25.96 86.5041 25.4C85.5281 24.84 84.7441 24.064 84.1521 23.072C83.5761 22.064 83.2881 20.904 83.2881 19.592C83.2881 18.28 83.5761 17.128 84.1521 16.136C84.7441 15.128 85.5281 14.344 86.5041 13.784C87.4961 13.208 88.6001 12.92 89.8161 12.92C91.0321 12.92 92.1281 13.208 93.1041 13.784C94.0961 14.344 94.8801 15.128 95.4561 16.136C96.0481 17.128 96.3441 18.28 96.3441 19.592ZM93.4641 19.592C93.4641 18.776 93.2961 18.072 92.9601 17.48C92.6401 16.872 92.2001 16.4 91.6401 16.064C91.0961 15.728 90.4881 15.56 89.8161 15.56C89.1441 15.56 88.5281 15.728 87.9681 16.064C87.4241 16.4 86.9841 16.872 86.6481 17.48C86.3281 18.072 86.1681 18.776 86.1681 19.592C86.1681 20.392 86.3281 21.096 86.6481 21.704C86.9841 22.296 87.4241 22.76 87.9681 23.096C88.5281 23.432 89.1441 23.6 89.8161 23.6C90.4881 23.6 91.0961 23.432 91.6401 23.096C92.2001 22.76 92.6401 22.296 92.9601 21.704C93.2961 21.096 93.4641 20.392 93.4641 19.592ZM105.465 8.24C105.817 8.24 106.161 8.288 106.497 8.384C106.833 8.48 107.113 8.64 107.337 8.864C107.561 9.072 107.673 9.352 107.673 9.704C107.673 10.104 107.553 10.424 107.313 10.664C107.089 10.888 106.825 11 106.521 11C106.377 11 106.161 10.968 105.873 10.904C105.585 10.824 105.305 10.784 105.033 10.784C104.633 10.784 104.321 10.872 104.097 11.048C103.889 11.224 103.745 11.432 103.665 11.672C103.585 11.896 103.545 12.096 103.545 12.272V24.536C103.545 24.952 103.409 25.304 103.137 25.592C102.865 25.864 102.521 26 102.105 26C101.689 26 101.345 25.864 101.073 25.592C100.801 25.304 100.665 24.952 100.665 24.536V12.296C100.665 11.16 101.065 10.2 101.865 9.416C102.665 8.632 103.865 8.24 105.465 8.24ZM105.729 13.4C106.113 13.4 106.433 13.528 106.689 13.784C106.945 14.024 107.073 14.336 107.073 14.72C107.073 15.104 106.945 15.424 106.689 15.68C106.433 15.92 106.113 16.04 105.729 16.04H99.3687C98.9847 16.04 98.6647 15.92 98.4087 15.68C98.1527 15.424 98.0247 15.104 98.0247 14.72C98.0247 14.336 98.1527 14.024 98.4087 13.784C98.6647 13.528 98.9847 13.4 99.3687 13.4H105.729ZM112.065 24.536C112.065 24.952 111.929 25.304 111.657 25.592C111.385 25.864 111.041 26 110.625 26C110.209 26 109.865 25.864 109.593 25.592C109.321 25.304 109.185 24.952 109.185 24.536V14.624C109.185 14.208 109.321 13.864 109.593 13.592C109.865 13.304 110.209 13.16 110.625 13.16C111.041 13.16 111.385 13.304 111.657 13.592C111.929 13.864 112.065 14.208 112.065 14.624V24.536ZM110.601 11.6C110.057 11.6 109.673 11.512 109.449 11.336C109.225 11.16 109.113 10.848 109.113 10.4V9.944C109.113 9.48 109.233 9.168 109.473 9.008C109.729 8.832 110.113 8.744 110.625 8.744C111.185 8.744 111.577 8.832 111.801 9.008C112.025 9.184 112.137 9.496 112.137 9.944V10.4C112.137 10.864 112.017 11.184 111.777 11.36C111.537 11.52 111.145 11.6 110.601 11.6ZM118.133 24.536C118.133 24.952 117.989 25.304 117.701 25.592C117.429 25.864 117.085 26 116.669 26C116.269 26 115.933 25.864 115.661 25.592C115.389 25.304 115.253 24.952 115.253 24.536V9.704C115.253 9.288 115.389 8.944 115.661 8.672C115.949 8.384 116.301 8.24 116.717 8.24C117.133 8.24 117.469 8.384 117.725 8.672C117.997 8.944 118.133 9.288 118.133 9.704V24.536ZM127.296 26.24C125.936 26.24 124.752 25.96 123.744 25.4C122.752 24.824 121.984 24.048 121.44 23.072C120.912 22.096 120.648 20.992 120.648 19.76C120.648 18.32 120.936 17.096 121.512 16.088C122.104 15.064 122.872 14.28 123.816 13.736C124.76 13.192 125.76 12.92 126.816 12.92C127.632 12.92 128.4 13.088 129.12 13.424C129.856 13.76 130.504 14.224 131.064 14.816C131.624 15.392 132.064 16.064 132.384 16.832C132.72 17.6 132.888 18.416 132.888 19.28C132.872 19.664 132.72 19.976 132.432 20.216C132.144 20.456 131.808 20.576 131.424 20.576H122.256L121.536 18.176H130.344L129.816 18.656V18.008C129.784 17.544 129.616 17.128 129.312 16.76C129.024 16.392 128.656 16.104 128.208 15.896C127.776 15.672 127.312 15.56 126.816 15.56C126.336 15.56 125.888 15.624 125.472 15.752C125.056 15.88 124.696 16.096 124.392 16.4C124.088 16.704 123.848 17.112 123.672 17.624C123.496 18.136 123.408 18.784 123.408 19.568C123.408 20.432 123.584 21.168 123.936 21.776C124.304 22.368 124.768 22.824 125.328 23.144C125.904 23.448 126.512 23.6 127.152 23.6C127.744 23.6 128.216 23.552 128.568 23.456C128.92 23.36 129.2 23.248 129.408 23.12C129.632 22.976 129.832 22.856 130.008 22.76C130.296 22.616 130.568 22.544 130.824 22.544C131.176 22.544 131.464 22.664 131.688 22.904C131.928 23.144 132.048 23.424 132.048 23.744C132.048 24.176 131.824 24.568 131.376 24.92C130.96 25.272 130.376 25.584 129.624 25.856C128.872 26.112 128.096 26.24 127.296 26.24Z" fill="white"/>
<path fill-rule="evenodd" clip-rule="evenodd" d="M16 30.4C8.0472 30.4 1.6 23.9528 1.6 16C1.6 8.0472 8.0472 1.6 16 1.6C23.9528 1.6 30.4 8.0472 30.4 16C30.4 23.9528 23.9528 30.4 16 30.4ZM16 32C7.1632 32 0 24.8368 0 16C0 7.1632 7.1632 0 16 0C24.8368 0 32 7.1632 32 16C32 24.8368 24.8368 32 16 32Z" fill="#8A8A8A"/>
<path d="M25.6 25.304C25.6 24.4776 24.9824 23.7792 24.16 23.688C17.988 23.0048 13.984 23.0664 7.82558 23.7032C7.51805 23.7355 7.22658 23.8566 6.98677 24.0518C6.74697 24.2471 6.5692 24.5079 6.47519 24.8025C6.38118 25.0971 6.375 25.4126 6.4574 25.7107C6.53979 26.0087 6.7072 26.2763 6.93917 26.4808C14.2072 32.816 18.3608 32.7288 25.088 26.4872C25.416 26.1832 25.6 25.7512 25.6 25.3048V25.304Z" fill="#8A8A8A"/>
<path fill-rule="evenodd" clip-rule="evenodd" d="M7.90802 24.4984C14.0176 23.8664 17.964 23.8072 24.0728 24.4832C24.2739 24.5066 24.4593 24.6034 24.5935 24.755C24.7276 24.9066 24.8012 25.1023 24.8 25.3048C24.8 25.5336 24.7048 25.7504 24.544 25.9008C21.2096 28.9936 18.6832 30.3912 16.2136 30.4C13.7352 30.4088 11.0728 29.0224 7.46482 25.8784C7.3502 25.7763 7.26768 25.6432 7.2273 25.4952C7.18692 25.3471 7.19041 25.1906 7.23736 25.0445C7.28431 24.8984 7.37268 24.7691 7.49174 24.6723C7.6108 24.5755 7.75542 24.5153 7.90802 24.4992V24.4984ZM24.248 22.8928C18.0112 22.2024 13.9488 22.2648 7.74242 22.9072C7.27978 22.9555 6.84125 23.1376 6.48053 23.4313C6.11981 23.725 5.85254 24.1174 5.71144 24.5607C5.57035 25.0039 5.56155 25.4787 5.68612 25.9268C5.81069 26.375 6.06323 26.7771 6.41282 27.084C10.0728 30.2744 13.1208 32.012 16.2184 32C19.3248 31.9888 22.2384 30.2216 25.6312 27.0736C25.8741 26.8473 26.0678 26.5734 26.2001 26.2689C26.3323 25.9644 26.4004 25.6359 26.4 25.304C26.4012 24.7075 26.1823 24.1316 25.7852 23.6865C25.3881 23.2415 24.8408 22.9586 24.248 22.892V22.8928Z" fill="#8A8A8A"/>
<path d="M9.60002 12.8C9.60002 14.4974 10.2743 16.1252 11.4745 17.3255C12.6748 18.5257 14.3026 19.2 16 19.2C17.6974 19.2 19.3253 18.5257 20.5255 17.3255C21.7257 16.1252 22.4 14.4974 22.4 12.8C22.4 11.1026 21.7257 9.47473 20.5255 8.2745C19.3253 7.07426 17.6974 6.39998 16 6.39998C14.3026 6.39998 12.6748 7.07426 11.4745 8.2745C10.2743 9.47473 9.60002 11.1026 9.60002 12.8Z" fill="#8A8A8A"/>
<path fill-rule="evenodd" clip-rule="evenodd" d="M16 17.6C14.727 17.6 13.5061 17.0943 12.6059 16.1941C11.7057 15.2939 11.2 14.073 11.2 12.8C11.2 11.5269 11.7057 10.306 12.6059 9.40587C13.5061 8.50569 14.727 7.99998 16 7.99998C17.2731 7.99998 18.494 8.50569 19.3941 9.40587C20.2943 10.306 20.8 11.5269 20.8 12.8C20.8 14.073 20.2943 15.2939 19.3941 16.1941C18.494 17.0943 17.2731 17.6 16 17.6ZM16 19.2C14.3026 19.2 12.6748 18.5257 11.4745 17.3255C10.2743 16.1252 9.60002 14.4974 9.60002 12.8C9.60002 11.1026 10.2743 9.47473 11.4745 8.2745C12.6748 7.07426 14.3026 6.39998 16 6.39998C17.6974 6.39998 19.3253 7.07426 20.5255 8.2745C21.7257 9.47473 22.4 11.1026 22.4 12.8C22.4 14.4974 21.7257 16.1252 20.5255 17.3255C19.3253 18.5257 17.6974 19.2 16 19.2Z" fill="#8A8A8A"/>
</svg>
