<svg width="183" height="32" viewBox="0 0 183 32" fill="none" xmlns="http://www.w3.org/2000/svg">
<path d="M70.064 7.152C70.464 7.152 70.808 7.288 71.096 7.56C71.4 7.816 71.552 8.144 71.552 8.544C71.552 8.752 71.504 8.968 71.408 9.192L65.48 23.064C65.336 23.384 65.128 23.624 64.856 23.784C64.6 23.928 64.336 24 64.064 24C63.808 23.984 63.56 23.904 63.32 23.76C63.08 23.6 62.896 23.376 62.768 23.088L56.84 9.168C56.792 9.072 56.76 8.976 56.744 8.88C56.728 8.768 56.72 8.664 56.72 8.568C56.72 8.104 56.888 7.752 57.224 7.512C57.56 7.256 57.88 7.128 58.184 7.128C58.792 7.128 59.232 7.44 59.504 8.064L64.76 20.424L63.92 20.448L68.744 8.064C69.016 7.456 69.456 7.152 70.064 7.152ZM75.7936 24C75.3456 24 74.9456 23.864 74.5936 23.592C74.2416 23.304 74.0656 22.952 74.0656 22.536V8.664C74.0656 8.248 74.2016 7.904 74.4736 7.632C74.7616 7.344 75.1136 7.2 75.5296 7.2H82.4416C83.2736 7.2 84.0496 7.424 84.7696 7.872C85.5056 8.304 86.0976 8.912 86.5456 9.696C86.9936 10.464 87.2176 11.352 87.2176 12.36C87.2176 12.968 87.0896 13.56 86.8336 14.136C86.5936 14.712 86.2576 15.232 85.8256 15.696C85.4096 16.16 84.9376 16.52 84.4096 16.776L84.4336 16.224C84.8816 16.464 85.2496 16.752 85.5376 17.088C85.8416 17.408 86.0736 17.76 86.2336 18.144C86.4096 18.512 86.5136 18.912 86.5456 19.344C86.6096 19.744 86.6496 20.096 86.6656 20.4C86.6976 20.704 86.7456 20.96 86.8096 21.168C86.8896 21.376 87.0336 21.536 87.2416 21.648C87.5936 21.856 87.8096 22.16 87.8896 22.56C87.9856 22.944 87.8976 23.288 87.6256 23.592C87.4496 23.8 87.2256 23.936 86.9536 24C86.6816 24.048 86.4096 24.048 86.1376 24C85.8656 23.936 85.6416 23.856 85.4656 23.76C85.1936 23.6 84.9216 23.368 84.6496 23.064C84.3776 22.744 84.1536 22.32 83.9776 21.792C83.8176 21.264 83.7376 20.584 83.7376 19.752C83.7376 19.48 83.6896 19.232 83.5936 19.008C83.4976 18.768 83.3616 18.568 83.1856 18.408C83.0096 18.232 82.7856 18.104 82.5136 18.024C82.2416 17.928 81.9216 17.88 81.5536 17.88H76.7056L77.0656 17.328V22.536C77.0656 22.952 76.9536 23.304 76.7296 23.592C76.5056 23.864 76.1936 24 75.7936 24ZM76.7296 15.408H82.3216C82.6096 15.408 82.8896 15.28 83.1616 15.024C83.4336 14.752 83.6576 14.392 83.8336 13.944C84.0096 13.48 84.0976 12.976 84.0976 12.432C84.0976 11.728 83.9056 11.144 83.5216 10.68C83.1536 10.2 82.7536 9.96 82.3216 9.96H76.7776L77.0656 9.192V15.984L76.7296 15.408ZM105.189 24.24C103.973 24.24 102.837 24.016 101.781 23.568C100.725 23.12 99.7968 22.504 98.9967 21.72C98.1968 20.92 97.5648 20 97.1008 18.96C96.6528 17.92 96.4288 16.8 96.4288 15.6C96.4288 14.4 96.6528 13.28 97.1008 12.24C97.5648 11.2 98.1968 10.288 98.9967 9.504C99.7968 8.704 100.725 8.08 101.781 7.632C102.837 7.184 103.973 6.96 105.189 6.96C105.941 6.96 106.669 7.04 107.373 7.2C108.077 7.36 108.725 7.6 109.317 7.92C109.557 8.048 109.733 8.224 109.845 8.448C109.973 8.656 110.037 8.872 110.037 9.096C110.037 9.48 109.909 9.824 109.653 10.128C109.397 10.432 109.069 10.584 108.669 10.584C108.541 10.584 108.405 10.568 108.261 10.536C108.133 10.504 108.005 10.456 107.877 10.392C107.477 10.216 107.053 10.08 106.605 9.984C106.157 9.888 105.685 9.84 105.189 9.84C104.149 9.84 103.197 10.104 102.333 10.632C101.485 11.144 100.805 11.84 100.293 12.72C99.7968 13.584 99.5488 14.544 99.5488 15.6C99.5488 16.64 99.7968 17.6 100.293 18.48C100.805 19.36 101.485 20.064 102.333 20.592C103.197 21.104 104.149 21.36 105.189 21.36C105.669 21.36 106.197 21.312 106.773 21.216C107.349 21.12 107.821 20.992 108.189 20.832L107.973 21.552V17.448L108.381 17.808H105.717C105.301 17.808 104.949 17.672 104.661 17.4C104.389 17.128 104.253 16.784 104.253 16.368C104.253 15.952 104.389 15.608 104.661 15.336C104.949 15.064 105.301 14.928 105.717 14.928H109.653C110.069 14.928 110.413 15.072 110.685 15.36C110.957 15.632 111.093 15.976 111.093 16.392V21.48C111.093 21.8 111.013 22.064 110.853 22.272C110.709 22.48 110.541 22.648 110.349 22.776C109.613 23.224 108.805 23.584 107.925 23.856C107.061 24.112 106.149 24.24 105.189 24.24ZM116.86 22.536C116.86 22.952 116.716 23.304 116.428 23.592C116.156 23.864 115.812 24 115.396 24C114.996 24 114.66 23.864 114.388 23.592C114.116 23.304 113.98 22.952 113.98 22.536V7.704C113.98 7.288 114.116 6.944 114.388 6.672C114.676 6.384 115.028 6.24 115.444 6.24C115.86 6.24 116.196 6.384 116.452 6.672C116.724 6.944 116.86 7.288 116.86 7.704V22.536ZM130.72 10.92C131.136 10.92 131.48 11.056 131.752 11.328C132.024 11.6 132.16 11.952 132.16 12.384V22.536C132.16 22.952 132.024 23.304 131.752 23.592C131.48 23.864 131.136 24 130.72 24C130.304 24 129.96 23.864 129.688 23.592C129.416 23.304 129.28 22.952 129.28 22.536V21.36L129.808 21.576C129.808 21.784 129.696 22.04 129.472 22.344C129.248 22.632 128.944 22.92 128.56 23.208C128.176 23.496 127.72 23.744 127.192 23.952C126.68 24.144 126.12 24.24 125.512 24.24C124.408 24.24 123.408 23.96 122.512 23.4C121.616 22.824 120.904 22.04 120.376 21.048C119.864 20.04 119.608 18.888 119.608 17.592C119.608 16.28 119.864 15.128 120.376 14.136C120.904 13.128 121.608 12.344 122.488 11.784C123.368 11.208 124.344 10.92 125.416 10.92C126.104 10.92 126.736 11.024 127.312 11.232C127.888 11.44 128.384 11.704 128.8 12.024C129.232 12.344 129.56 12.672 129.784 13.008C130.024 13.328 130.144 13.6 130.144 13.824L129.28 14.136V12.384C129.28 11.968 129.416 11.624 129.688 11.352C129.96 11.064 130.304 10.92 130.72 10.92ZM125.872 21.6C126.576 21.6 127.192 21.424 127.72 21.072C128.248 20.72 128.656 20.24 128.944 19.632C129.248 19.024 129.4 18.344 129.4 17.592C129.4 16.824 129.248 16.136 128.944 15.528C128.656 14.92 128.248 14.44 127.72 14.088C127.192 13.736 126.576 13.56 125.872 13.56C125.184 13.56 124.576 13.736 124.048 14.088C123.52 14.44 123.104 14.92 122.8 15.528C122.512 16.136 122.368 16.824 122.368 17.592C122.368 18.344 122.512 19.024 122.8 19.632C123.104 20.24 123.52 20.72 124.048 21.072C124.576 21.424 125.184 21.6 125.872 21.6ZM134.535 22.008C134.375 21.784 134.303 21.496 134.319 21.144C134.335 20.792 134.543 20.488 134.943 20.232C135.199 20.072 135.471 20.008 135.759 20.04C136.047 20.056 136.327 20.2 136.599 20.472C137.063 20.936 137.551 21.296 138.063 21.552C138.575 21.808 139.215 21.936 139.983 21.936C140.223 21.92 140.487 21.888 140.775 21.84C141.063 21.776 141.311 21.648 141.519 21.456C141.743 21.248 141.855 20.936 141.855 20.52C141.855 20.168 141.735 19.888 141.495 19.68C141.255 19.472 140.935 19.296 140.535 19.152C140.151 19.008 139.719 18.872 139.239 18.744C138.743 18.6 138.231 18.44 137.703 18.264C137.191 18.088 136.719 17.864 136.287 17.592C135.855 17.304 135.503 16.928 135.231 16.464C134.959 16 134.823 15.416 134.823 14.712C134.823 13.912 135.047 13.232 135.495 12.672C135.943 12.112 136.519 11.68 137.223 11.376C137.943 11.072 138.695 10.92 139.479 10.92C139.975 10.92 140.495 10.984 141.039 11.112C141.583 11.224 142.103 11.416 142.599 11.688C143.095 11.944 143.511 12.288 143.847 12.72C144.023 12.96 144.127 13.248 144.159 13.584C144.191 13.92 144.039 14.224 143.703 14.496C143.463 14.688 143.183 14.776 142.863 14.76C142.543 14.728 142.279 14.616 142.071 14.424C141.799 14.072 141.431 13.792 140.967 13.584C140.519 13.376 139.999 13.272 139.407 13.272C139.167 13.272 138.903 13.304 138.615 13.368C138.343 13.416 138.103 13.536 137.895 13.728C137.687 13.904 137.583 14.192 137.583 14.592C137.583 14.96 137.703 15.256 137.943 15.48C138.183 15.688 138.503 15.864 138.903 16.008C139.319 16.136 139.759 16.264 140.223 16.392C140.703 16.52 141.191 16.672 141.687 16.848C142.183 17.024 142.639 17.256 143.055 17.544C143.471 17.832 143.807 18.208 144.063 18.672C144.319 19.12 144.447 19.696 144.447 20.4C144.447 21.216 144.207 21.912 143.727 22.488C143.247 23.064 142.647 23.504 141.927 23.808C141.207 24.096 140.471 24.24 139.719 24.24C138.775 24.24 137.831 24.08 136.887 23.76C135.943 23.424 135.159 22.84 134.535 22.008ZM146.113 22.008C145.953 21.784 145.881 21.496 145.897 21.144C145.913 20.792 146.121 20.488 146.521 20.232C146.777 20.072 147.049 20.008 147.337 20.04C147.625 20.056 147.905 20.2 148.177 20.472C148.641 20.936 149.129 21.296 149.641 21.552C150.153 21.808 150.793 21.936 151.561 21.936C151.801 21.92 152.065 21.888 152.353 21.84C152.641 21.776 152.889 21.648 153.097 21.456C153.321 21.248 153.433 20.936 153.433 20.52C153.433 20.168 153.313 19.888 153.073 19.68C152.833 19.472 152.513 19.296 152.113 19.152C151.729 19.008 151.297 18.872 150.817 18.744C150.321 18.6 149.809 18.44 149.281 18.264C148.769 18.088 148.297 17.864 147.865 17.592C147.433 17.304 147.081 16.928 146.809 16.464C146.537 16 146.401 15.416 146.401 14.712C146.401 13.912 146.625 13.232 147.073 12.672C147.521 12.112 148.097 11.68 148.801 11.376C149.521 11.072 150.273 10.92 151.057 10.92C151.553 10.92 152.073 10.984 152.617 11.112C153.161 11.224 153.681 11.416 154.177 11.688C154.673 11.944 155.089 12.288 155.425 12.72C155.601 12.96 155.705 13.248 155.737 13.584C155.769 13.92 155.617 14.224 155.281 14.496C155.041 14.688 154.761 14.776 154.441 14.76C154.121 14.728 153.857 14.616 153.649 14.424C153.377 14.072 153.009 13.792 152.545 13.584C152.097 13.376 151.577 13.272 150.985 13.272C150.745 13.272 150.481 13.304 150.193 13.368C149.921 13.416 149.681 13.536 149.473 13.728C149.265 13.904 149.161 14.192 149.161 14.592C149.161 14.96 149.281 15.256 149.521 15.48C149.761 15.688 150.081 15.864 150.481 16.008C150.897 16.136 151.337 16.264 151.801 16.392C152.281 16.52 152.769 16.672 153.265 16.848C153.761 17.024 154.217 17.256 154.633 17.544C155.049 17.832 155.385 18.208 155.641 18.672C155.897 19.12 156.025 19.696 156.025 20.4C156.025 21.216 155.785 21.912 155.305 22.488C154.825 23.064 154.225 23.504 153.505 23.808C152.785 24.096 152.049 24.24 151.297 24.24C150.353 24.24 149.409 24.08 148.465 23.76C147.521 23.424 146.737 22.84 146.113 22.008ZM164.483 24.24C163.123 24.24 161.939 23.96 160.931 23.4C159.939 22.824 159.171 22.048 158.627 21.072C158.099 20.096 157.835 18.992 157.835 17.76C157.835 16.32 158.123 15.096 158.699 14.088C159.291 13.064 160.059 12.28 161.003 11.736C161.947 11.192 162.947 10.92 164.003 10.92C164.819 10.92 165.587 11.088 166.307 11.424C167.043 11.76 167.691 12.224 168.251 12.816C168.811 13.392 169.251 14.064 169.571 14.832C169.907 15.6 170.075 16.416 170.075 17.28C170.059 17.664 169.907 17.976 169.619 18.216C169.331 18.456 168.995 18.576 168.611 18.576H159.443L158.723 16.176H167.531L167.003 16.656V16.008C166.971 15.544 166.803 15.128 166.499 14.76C166.211 14.392 165.843 14.104 165.395 13.896C164.963 13.672 164.499 13.56 164.003 13.56C163.523 13.56 163.075 13.624 162.659 13.752C162.243 13.88 161.883 14.096 161.579 14.4C161.275 14.704 161.035 15.112 160.859 15.624C160.683 16.136 160.595 16.784 160.595 17.568C160.595 18.432 160.771 19.168 161.123 19.776C161.491 20.368 161.955 20.824 162.515 21.144C163.091 21.448 163.699 21.6 164.339 21.6C164.931 21.6 165.403 21.552 165.755 21.456C166.107 21.36 166.387 21.248 166.595 21.12C166.819 20.976 167.019 20.856 167.195 20.76C167.483 20.616 167.755 20.544 168.011 20.544C168.363 20.544 168.651 20.664 168.875 20.904C169.115 21.144 169.235 21.424 169.235 21.744C169.235 22.176 169.011 22.568 168.563 22.92C168.147 23.272 167.563 23.584 166.811 23.856C166.059 24.112 165.283 24.24 164.483 24.24ZM171.847 22.008C171.687 21.784 171.615 21.496 171.631 21.144C171.647 20.792 171.855 20.488 172.255 20.232C172.511 20.072 172.783 20.008 173.071 20.04C173.359 20.056 173.639 20.2 173.911 20.472C174.375 20.936 174.863 21.296 175.375 21.552C175.887 21.808 176.527 21.936 177.295 21.936C177.535 21.92 177.799 21.888 178.087 21.84C178.375 21.776 178.623 21.648 178.831 21.456C179.055 21.248 179.167 20.936 179.167 20.52C179.167 20.168 179.047 19.888 178.807 19.68C178.567 19.472 178.247 19.296 177.847 19.152C177.463 19.008 177.031 18.872 176.551 18.744C176.055 18.6 175.543 18.44 175.015 18.264C174.503 18.088 174.031 17.864 173.599 17.592C173.167 17.304 172.815 16.928 172.543 16.464C172.271 16 172.135 15.416 172.135 14.712C172.135 13.912 172.359 13.232 172.807 12.672C173.255 12.112 173.831 11.68 174.535 11.376C175.255 11.072 176.007 10.92 176.791 10.92C177.287 10.92 177.807 10.984 178.351 11.112C178.895 11.224 179.415 11.416 179.911 11.688C180.407 11.944 180.823 12.288 181.159 12.72C181.335 12.96 181.439 13.248 181.471 13.584C181.503 13.92 181.351 14.224 181.015 14.496C180.775 14.688 180.495 14.776 180.175 14.76C179.855 14.728 179.591 14.616 179.383 14.424C179.111 14.072 178.743 13.792 178.279 13.584C177.831 13.376 177.311 13.272 176.719 13.272C176.479 13.272 176.215 13.304 175.927 13.368C175.655 13.416 175.415 13.536 175.207 13.728C174.999 13.904 174.895 14.192 174.895 14.592C174.895 14.96 175.015 15.256 175.255 15.48C175.495 15.688 175.815 15.864 176.215 16.008C176.631 16.136 177.071 16.264 177.535 16.392C178.015 16.52 178.503 16.672 178.999 16.848C179.495 17.024 179.951 17.256 180.367 17.544C180.783 17.832 181.119 18.208 181.375 18.672C181.631 19.12 181.759 19.696 181.759 20.4C181.759 21.216 181.519 21.912 181.039 22.488C180.559 23.064 179.959 23.504 179.239 23.808C178.519 24.096 177.783 24.24 177.031 24.24C176.087 24.24 175.143 24.08 174.199 23.76C173.255 23.424 172.471 22.84 171.847 22.008Z" fill="#8A8A8A"/>
<g clip-path="url(#clip0_16_40)">
<path d="M16 2.496C19.714 2.496 23.052 3.778 25.3 6.084C27.1497 6.32456 28.8947 7.07992 30.336 8.264C27.814 2.964 22.59 0 16 0C9.49999 0 4.23999 2.96 1.68799 8.244C3.00946 7.16543 4.58583 6.44439 6.26599 6.15C8.47199 3.744 11.948 2.496 16 2.496Z" fill="#8A8A8A"/>
<path d="M24 24C21.9189 24.0024 19.9194 23.1914 18.428 21.74L18.424 21.736C18.2516 21.6065 18.0667 21.4946 17.872 21.402C17.2858 21.1299 16.6462 20.9926 16 21C15.172 21 14.542 21.206 14.13 21.402C13.9346 21.4945 13.749 21.6064 13.576 21.736L13.572 21.74C12.6316 22.6529 11.4814 23.3208 10.2223 23.685C8.96334 24.0491 7.63414 24.0984 6.35163 23.8284C5.06912 23.5585 3.87258 22.9775 2.86722 22.1367C1.86185 21.2959 1.07846 20.221 0.585925 19.0064C0.0933878 17.7919 -0.0932082 16.4749 0.0425433 15.1714C0.178295 13.8678 0.632236 12.6176 1.36445 11.5306C2.09667 10.4435 3.08473 9.55309 4.24177 8.93747C5.3988 8.32185 6.68937 7.99992 7.99998 8H24C26.1217 8 28.1565 8.84285 29.6568 10.3431C31.1571 11.8434 32 13.8783 32 16C32 18.1217 31.1571 20.1566 29.6568 21.6569C28.1565 23.1571 26.1217 24 24 24Z" fill="#8A8A8A"/>
</g>
<defs>
<clipPath id="clip0_16_40">
<rect width="32" height="32" fill="white"/>
</clipPath>
</defs>
</svg>
